<?xml version="1.0" encoding="UTF-8" standalone="no"?><svg xmlns="http://www.w3.org/2000/svg" xmlns:xlink="http://www.w3.org/1999/xlink" contentScriptType="application/ecmascript" contentStyleType="text/css" height="397px" preserveAspectRatio="none" style="width:609px;height:397px;" version="1.1" viewBox="0 0 609 397" width="609px" zoomAndPan="magnify"><defs><filter height="300%" id="f1ddqjkotoipn1" width="300%" x="-1" y="-1"><feGaussianBlur result="blurOut" stdDeviation="2.0"/><feColorMatrix in="blurOut" result="blurOut2" type="matrix" values="0 0 0 0 0 0 0 0 0 0 0 0 0 0 0 0 0 0 .4 0"/><feOffset dx="4.0" dy="4.0" in="blurOut2" result="blurOut3"/><feBlend in="SourceGraphic" in2="blurOut3" mode="normal"/></filter></defs><g><text fill="#000000" font-family="sans-serif" font-size="18" lengthAdjust="spacingAndGlyphs" textLength="128" x="238" y="26.708">Spring Pattern</text><rect fill="#DDDDDD" height="347.9922" style="stroke: #A80036; stroke-width: 1.0;" width="463.5" x="114.5" y="38.9531"/><text fill="#000000" font-family="sans-serif" font-size="13" font-weight="bold" lengthAdjust="spacingAndGlyphs" textLength="48" x="322.25" y="51.02">Spring</text><rect fill="#FFFFFF" filter="url(#f1ddqjkotoipn1)" height="39.1328" style="stroke: #A80036; stroke-width: 1.0;" width="10" x="156" y="157.3828"/><rect fill="#FFFFFF" filter="url(#f1ddqjkotoipn1)" height="14" style="stroke: #A80036; stroke-width: 1.0;" width="10" x="156" y="268.6484"/><rect fill="#FFFFFF" filter="url(#f1ddqjkotoipn1)" height="39.1328" style="stroke: #A80036; stroke-width: 1.0;" width="10" x="349" y="196.5156"/><rect fill="#FFFFFF" filter="url(#f1ddqjkotoipn1)" height="14" style="stroke: #A80036; stroke-width: 1.0;" width="10" x="349" y="254.6484"/><rect fill="#FFFFFF" filter="url(#f1ddqjkotoipn1)" height="19" style="stroke: #A80036; stroke-width: 1.0;" width="10" x="523" y="235.6484"/><line style="stroke: #A80036; stroke-width: 1.0; stroke-dasharray: 5.0,5.0;" x1="27" x2="27" y1="121.25" y2="300.6484"/><line style="stroke: #A80036; stroke-width: 1.0; stroke-dasharray: 5.0,5.0;" x1="160.5" x2="160.5" y1="121.25" y2="300.6484"/><line style="stroke: #A80036; stroke-width: 1.0; stroke-dasharray: 5.0,5.0;" x1="354" x2="354" y1="121.25" y2="300.6484"/><line style="stroke: #A80036; stroke-width: 1.0; stroke-dasharray: 5.0,5.0;" x1="528" x2="528" y1="121.25" y2="300.6484"/><text fill="#000000" font-family="sans-serif" font-size="14" lengthAdjust="spacingAndGlyphs" textLength="32" x="8" y="117.9482">User</text><ellipse cx="27" cy="47.9531" fill="#FEFECE" filter="url(#f1ddqjkotoipn1)" rx="8" ry="8" style="stroke: #A80036; stroke-width: 2.0;"/><path d="M27,55.9531 L27,82.9531 M14,63.9531 L40,63.9531 M27,82.9531 L14,97.9531 M27,82.9531 L40,97.9531 " fill="none" filter="url(#f1ddqjkotoipn1)" style="stroke: #A80036; stroke-width: 2.0;"/><text fill="#000000" font-family="sans-serif" font-size="14" lengthAdjust="spacingAndGlyphs" textLength="32" x="8" y="312.6436">User</text><ellipse cx="27" cy="325.9453" fill="#FEFECE" filter="url(#f1ddqjkotoipn1)" rx="8" ry="8" style="stroke: #A80036; stroke-width: 2.0;"/><path d="M27,333.9453 L27,360.9453 M14,341.9453 L40,341.9453 M27,360.9453 L14,375.9453 M27,360.9453 L40,375.9453 " fill="none" filter="url(#f1ddqjkotoipn1)" style="stroke: #A80036; stroke-width: 2.0;"/><rect fill="#FEFECE" filter="url(#f1ddqjkotoipn1)" height="30.2969" style="stroke: #A80036; stroke-width: 1.5;" width="81" x="118.5" y="85.9531"/><text fill="#000000" font-family="sans-serif" font-size="14" lengthAdjust="spacingAndGlyphs" textLength="67" x="125.5" y="105.9482">Resource</text><rect fill="#FEFECE" filter="url(#f1ddqjkotoipn1)" height="30.2969" style="stroke: #A80036; stroke-width: 1.5;" width="81" x="118.5" y="299.6484"/><text fill="#000000" font-family="sans-serif" font-size="14" lengthAdjust="spacingAndGlyphs" textLength="67" x="125.5" y="319.6436">Resource</text><rect fill="#FEFECE" filter="url(#f1ddqjkotoipn1)" height="30.2969" style="stroke: #A80036; stroke-width: 1.5;" width="64" x="320" y="85.9531"/><text fill="#000000" font-family="sans-serif" font-size="14" lengthAdjust="spacingAndGlyphs" textLength="50" x="327" y="105.9482">Service</text><rect fill="#FEFECE" filter="url(#f1ddqjkotoipn1)" height="30.2969" style="stroke: #A80036; stroke-width: 1.5;" width="64" x="320" y="299.6484"/><text fill="#000000" font-family="sans-serif" font-size="14" lengthAdjust="spacingAndGlyphs" textLength="50" x="327" y="319.6436">Service</text><rect fill="#FEFECE" filter="url(#f1ddqjkotoipn1)" height="30.2969" style="stroke: #A80036; stroke-width: 1.5;" width="88" x="482" y="85.9531"/><text fill="#000000" font-family="sans-serif" font-size="14" lengthAdjust="spacingAndGlyphs" textLength="74" x="489" y="105.9482">Repository</text><rect fill="#FEFECE" filter="url(#f1ddqjkotoipn1)" height="30.2969" style="stroke: #A80036; stroke-width: 1.5;" width="88" x="482" y="299.6484"/><text fill="#000000" font-family="sans-serif" font-size="14" lengthAdjust="spacingAndGlyphs" textLength="74" x="489" y="319.6436">Repository</text><rect fill="#FFFFFF" filter="url(#f1ddqjkotoipn1)" height="39.1328" style="stroke: #A80036; stroke-width: 1.0;" width="10" x="156" y="157.3828"/><rect fill="#FFFFFF" filter="url(#f1ddqjkotoipn1)" height="14" style="stroke: #A80036; stroke-width: 1.0;" width="10" x="156" y="268.6484"/><rect fill="#FFFFFF" filter="url(#f1ddqjkotoipn1)" height="39.1328" style="stroke: #A80036; stroke-width: 1.0;" width="10" x="349" y="196.5156"/><rect fill="#FFFFFF" filter="url(#f1ddqjkotoipn1)" height="14" style="stroke: #A80036; stroke-width: 1.0;" width="10" x="349" y="254.6484"/><rect fill="#FFFFFF" filter="url(#f1ddqjkotoipn1)" height="19" style="stroke: #A80036; stroke-width: 1.0;" width="10" x="523" y="235.6484"/><polygon fill="#A80036" points="144,153.3828,154,157.3828,144,161.3828,148,157.3828" style="stroke: #A80036; stroke-width: 1.0;"/><line style="stroke: #A80036; stroke-width: 1.0;" x1="27" x2="150" y1="157.3828" y2="157.3828"/><text fill="#000000" font-family="sans-serif" font-size="13" lengthAdjust="spacingAndGlyphs" textLength="110" x="34" y="152.3169">in the form of VM</text><path d="M171,136.25 L171,161.25 L212,161.25 L212,146.25 L202,136.25 L171,136.25 " fill="#FBFB77" filter="url(#f1ddqjkotoipn1)" style="stroke: #A80036; stroke-width: 1.0;"/><path d="M202,136.25 L202,146.25 L212,146.25 L202,136.25 " fill="#FBFB77" style="stroke: #A80036; stroke-width: 1.0;"/><text fill="#000000" font-family="sans-serif" font-size="13" lengthAdjust="spacingAndGlyphs" textLength="20" x="177" y="153.3169">VM</text><polygon fill="#A80036" points="337,192.5156,347,196.5156,337,200.5156,341,196.5156" style="stroke: #A80036; stroke-width: 1.0;"/><line style="stroke: #A80036; stroke-width: 1.0;" x1="161" x2="343" y1="196.5156" y2="196.5156"/><text fill="#000000" font-family="sans-serif" font-size="13" lengthAdjust="spacingAndGlyphs" textLength="164" x="168" y="191.4497">DI - Service into Resource</text><path d="M364,175.3828 L364,200.3828 L412,200.3828 L412,185.3828 L402,175.3828 L364,175.3828 " fill="#FBFB77" filter="url(#f1ddqjkotoipn1)" style="stroke: #A80036; stroke-width: 1.0;"/><path d="M402,175.3828 L402,185.3828 L412,185.3828 L402,175.3828 " fill="#FBFB77" style="stroke: #A80036; stroke-width: 1.0;"/><text fill="#000000" font-family="sans-serif" font-size="13" lengthAdjust="spacingAndGlyphs" textLength="27" x="370" y="192.4497">DTO</text><polygon fill="#A80036" points="511,231.6484,521,235.6484,511,239.6484,515,235.6484" style="stroke: #A80036; stroke-width: 1.0;"/><line style="stroke: #A80036; stroke-width: 1.0; stroke-dasharray: 2.0,2.0;" x1="354" x2="517" y1="235.6484" y2="235.6484"/><text fill="#000000" font-family="sans-serif" font-size="13" lengthAdjust="spacingAndGlyphs" textLength="145" x="361" y="230.5825">decoupled by interface</text><path d="M538,214.5156 L538,239.5156 L597,239.5156 L597,224.5156 L587,214.5156 L538,214.5156 " fill="#FBFB77" filter="url(#f1ddqjkotoipn1)" style="stroke: #A80036; stroke-width: 1.0;"/><path d="M587,214.5156 L587,224.5156 L597,224.5156 L587,214.5156 " fill="#FBFB77" style="stroke: #A80036; stroke-width: 1.0;"/><text fill="#000000" font-family="sans-serif" font-size="13" lengthAdjust="spacingAndGlyphs" textLength="38" x="544" y="231.5825">Model</text><polygon fill="#A80036" points="370,250.6484,360,254.6484,370,258.6484,366,254.6484" style="stroke: #A80036; stroke-width: 1.0;"/><line style="stroke: #A80036; stroke-width: 1.0; stroke-dasharray: 2.0,2.0;" x1="364" x2="527" y1="254.6484" y2="254.6484"/><polygon fill="#A80036" points="177,264.6484,167,268.6484,177,272.6484,173,268.6484" style="stroke: #A80036; stroke-width: 1.0;"/><line style="stroke: #A80036; stroke-width: 1.0;" x1="171" x2="353" y1="268.6484" y2="268.6484"/><polygon fill="#A80036" points="38,278.6484,28,282.6484,38,286.6484,34,282.6484" style="stroke: #A80036; stroke-width: 1.0;"/><line style="stroke: #A80036; stroke-width: 1.0;" x1="32" x2="160" y1="282.6484" y2="282.6484"/><!--MD5=[7c630b618364f52979806e9ea5e470c1]
@startuml
title Spring Pattern

actor User

box "Spring"
participant "Resource"
participant "Service"
participant "Repository"
end box

User -> Resource: in the form of VM
activate Resource
note right
VM
end note
Resource -> Service: DI - Service into Resource
deactivate Resource
activate Service
note right
DTO
end note
Service - -> Repository: decoupled by interface
deactivate Service
activate Repository
note right
Model
end note
Repository - -> Service
deactivate Repository
activate Service
Service -> Resource
deactivate Service
activate Resource
Resource -> User
deactivate Resource
@enduml

PlantUML version 1.2020.01beta16(Unknown compile time)
(GPL source distribution)
Java Runtime: Java(TM) SE Runtime Environment
JVM: Java HotSpot(TM) 64-Bit Server VM
Java Version: 1.7.0_25-b15
Operating System: Linux
Default Encoding: UTF-8
Language: en
Country: US
--></g></svg>