<?xml version="1.0" encoding="UTF-8" standalone="no"?><svg xmlns="http://www.w3.org/2000/svg" xmlns:xlink="http://www.w3.org/1999/xlink" contentScriptType="application/ecmascript" contentStyleType="text/css" height="784px" preserveAspectRatio="none" style="width:1116px;height:784px;" version="1.1" viewBox="0 0 1116 784" width="1116px" zoomAndPan="magnify"><defs><filter height="300%" id="f1p5apuwjqtjou" width="300%" x="-1" y="-1"><feGaussianBlur result="blurOut" stdDeviation="2.0"/><feColorMatrix in="blurOut" result="blurOut2" type="matrix" values="0 0 0 0 0 0 0 0 0 0 0 0 0 0 0 0 0 0 .4 0"/><feOffset dx="4.0" dy="4.0" in="blurOut2" result="blurOut3"/><feBlend in="SourceGraphic" in2="blurOut3" mode="normal"/></filter></defs><g><text fill="#000000" font-family="sans-serif" font-size="18" lengthAdjust="spacingAndGlyphs" textLength="144" x="486.5" y="26.708">MVVM vs Redux</text><rect fill="#DDDDDD" height="734.1172" style="stroke: #A80036; stroke-width: 1.0;" width="258" x="219" y="38.9531"/><text fill="#000000" font-family="sans-serif" font-size="13" font-weight="bold" lengthAdjust="spacingAndGlyphs" textLength="46" x="325" y="51.02">MVVM</text><rect fill="#DDDDDD" height="734.1172" style="stroke: #A80036; stroke-width: 1.0;" width="559" x="479" y="38.9531"/><text fill="#000000" font-family="sans-serif" font-size="13" font-weight="bold" lengthAdjust="spacingAndGlyphs" textLength="46" x="735.5" y="51.02">Redux</text><rect fill="#FFFFFF" filter="url(#f1p5apuwjqtjou)" height="44.2656" style="stroke: #A80036; stroke-width: 1.0;" width="10" x="264" y="196.6484"/><rect fill="#FFFFFF" filter="url(#f1p5apuwjqtjou)" height="39.1328" style="stroke: #A80036; stroke-width: 1.0;" width="10" x="264" y="310.6133"/><rect fill="#FFFFFF" filter="url(#f1p5apuwjqtjou)" height="26.5664" style="stroke: #A80036; stroke-width: 1.0;" width="10" x="438" y="284.0469"/><rect fill="#FFFFFF" filter="url(#f1p5apuwjqtjou)" height="44.2656" style="stroke: #A80036; stroke-width: 1.0;" width="10" x="642.5" y="506.8438"/><rect fill="#FFFFFF" filter="url(#f1p5apuwjqtjou)" height="74.5313" style="stroke: #A80036; stroke-width: 1.0;" width="10" x="807.5" y="551.1094"/><rect fill="#FFFFFF" filter="url(#f1p5apuwjqtjou)" height="29.1328" style="stroke: #A80036; stroke-width: 1.0;" width="10" x="1071.5" y="254.9141"/><rect fill="#FFFFFF" filter="url(#f1p5apuwjqtjou)" height="14" style="stroke: #A80036; stroke-width: 1.0;" width="10" x="1071.5" y="492.8438"/><line style="stroke: #A80036; stroke-width: 1.0; stroke-dasharray: 5.0,5.0;" x1="27" x2="27" y1="121.25" y2="686.7734"/><line style="stroke: #A80036; stroke-width: 1.0; stroke-dasharray: 5.0,5.0;" x1="100" x2="100" y1="121.25" y2="686.7734"/><line style="stroke: #A80036; stroke-width: 1.0; stroke-dasharray: 5.0,5.0;" x1="269" x2="269" y1="121.25" y2="686.7734"/><line style="stroke: #A80036; stroke-width: 1.0; stroke-dasharray: 5.0,5.0;" x1="443" x2="443" y1="121.25" y2="686.7734"/><line style="stroke: #A80036; stroke-width: 1.0; stroke-dasharray: 5.0,5.0;" x1="513" x2="513" y1="121.25" y2="686.7734"/><line style="stroke: #A80036; stroke-width: 1.0; stroke-dasharray: 5.0,5.0;" x1="647.5" x2="647.5" y1="121.25" y2="686.7734"/><line style="stroke: #A80036; stroke-width: 1.0; stroke-dasharray: 5.0,5.0;" x1="812" x2="812" y1="121.25" y2="686.7734"/><line style="stroke: #A80036; stroke-width: 1.0; stroke-dasharray: 5.0,5.0;" x1="1006" x2="1006" y1="121.25" y2="686.7734"/><line style="stroke: #A80036; stroke-width: 1.0; stroke-dasharray: 5.0,5.0;" x1="1076" x2="1076" y1="121.25" y2="686.7734"/><text fill="#000000" font-family="sans-serif" font-size="14" lengthAdjust="spacingAndGlyphs" textLength="32" x="8" y="117.9482">User</text><ellipse cx="27" cy="47.9531" fill="#FEFECE" filter="url(#f1p5apuwjqtjou)" rx="8" ry="8" style="stroke: #A80036; stroke-width: 2.0;"/><path d="M27,55.9531 L27,82.9531 M14,63.9531 L40,63.9531 M27,82.9531 L14,97.9531 M27,82.9531 L40,97.9531 " fill="none" filter="url(#f1p5apuwjqtjou)" style="stroke: #A80036; stroke-width: 2.0;"/><text fill="#000000" font-family="sans-serif" font-size="14" lengthAdjust="spacingAndGlyphs" textLength="32" x="8" y="698.7686">User</text><ellipse cx="27" cy="712.0703" fill="#FEFECE" filter="url(#f1p5apuwjqtjou)" rx="8" ry="8" style="stroke: #A80036; stroke-width: 2.0;"/><path d="M27,720.0703 L27,747.0703 M14,728.0703 L40,728.0703 M27,747.0703 L14,762.0703 M27,747.0703 L40,762.0703 " fill="none" filter="url(#f1p5apuwjqtjou)" style="stroke: #A80036; stroke-width: 2.0;"/><rect fill="#FEFECE" filter="url(#f1p5apuwjqtjou)" height="30.2969" style="stroke: #A80036; stroke-width: 1.5;" width="46" x="75" y="85.9531"/><text fill="#000000" font-family="sans-serif" font-size="14" lengthAdjust="spacingAndGlyphs" textLength="32" x="82" y="105.9482">View</text><rect fill="#FEFECE" filter="url(#f1p5apuwjqtjou)" height="30.2969" style="stroke: #A80036; stroke-width: 1.5;" width="46" x="75" y="685.7734"/><text fill="#000000" font-family="sans-serif" font-size="14" lengthAdjust="spacingAndGlyphs" textLength="32" x="82" y="705.7686">View</text><rect fill="#FEFECE" filter="url(#f1p5apuwjqtjou)" height="30.2969" style="stroke: #A80036; stroke-width: 1.5;" width="88" x="223" y="85.9531"/><text fill="#000000" font-family="sans-serif" font-size="14" lengthAdjust="spacingAndGlyphs" textLength="74" x="230" y="105.9482">ViewModel</text><rect fill="#FEFECE" filter="url(#f1p5apuwjqtjou)" height="30.2969" style="stroke: #A80036; stroke-width: 1.5;" width="88" x="223" y="685.7734"/><text fill="#000000" font-family="sans-serif" font-size="14" lengthAdjust="spacingAndGlyphs" textLength="74" x="230" y="705.7686">ViewModel</text><rect fill="#FEFECE" filter="url(#f1p5apuwjqtjou)" height="30.2969" style="stroke: #A80036; stroke-width: 1.5;" width="56" x="413" y="85.9531"/><text fill="#000000" font-family="sans-serif" font-size="14" lengthAdjust="spacingAndGlyphs" textLength="42" x="420" y="105.9482">Model</text><rect fill="#FEFECE" filter="url(#f1p5apuwjqtjou)" height="30.2969" style="stroke: #A80036; stroke-width: 1.5;" width="56" x="413" y="685.7734"/><text fill="#000000" font-family="sans-serif" font-size="14" lengthAdjust="spacingAndGlyphs" textLength="42" x="420" y="705.7686">Model</text><rect fill="#FEFECE" filter="url(#f1p5apuwjqtjou)" height="30.2969" style="stroke: #A80036; stroke-width: 1.5;" width="57" x="483" y="85.9531"/><text fill="#000000" font-family="sans-serif" font-size="14" lengthAdjust="spacingAndGlyphs" textLength="43" x="490" y="105.9482">Action</text><rect fill="#FEFECE" filter="url(#f1p5apuwjqtjou)" height="30.2969" style="stroke: #A80036; stroke-width: 1.5;" width="57" x="483" y="685.7734"/><text fill="#000000" font-family="sans-serif" font-size="14" lengthAdjust="spacingAndGlyphs" textLength="43" x="490" y="705.7686">Action</text><rect fill="#FEFECE" filter="url(#f1p5apuwjqtjou)" height="30.2969" style="stroke: #A80036; stroke-width: 1.5;" width="92" x="599.5" y="85.9531"/><text fill="#000000" font-family="sans-serif" font-size="14" lengthAdjust="spacingAndGlyphs" textLength="78" x="606.5" y="105.9482">Middleware</text><rect fill="#FEFECE" filter="url(#f1p5apuwjqtjou)" height="30.2969" style="stroke: #A80036; stroke-width: 1.5;" width="92" x="599.5" y="685.7734"/><text fill="#000000" font-family="sans-serif" font-size="14" lengthAdjust="spacingAndGlyphs" textLength="78" x="606.5" y="705.7686">Middleware</text><rect fill="#FEFECE" filter="url(#f1p5apuwjqtjou)" height="30.2969" style="stroke: #A80036; stroke-width: 1.5;" width="73" x="774" y="85.9531"/><text fill="#000000" font-family="sans-serif" font-size="14" lengthAdjust="spacingAndGlyphs" textLength="59" x="781" y="105.9482">Reducer</text><rect fill="#FEFECE" filter="url(#f1p5apuwjqtjou)" height="30.2969" style="stroke: #A80036; stroke-width: 1.5;" width="73" x="774" y="685.7734"/><text fill="#000000" font-family="sans-serif" font-size="14" lengthAdjust="spacingAndGlyphs" textLength="59" x="781" y="705.7686">Reducer</text><rect fill="#FEFECE" filter="url(#f1p5apuwjqtjou)" height="30.2969" style="stroke: #A80036; stroke-width: 1.5;" width="51" x="979" y="85.9531"/><text fill="#000000" font-family="sans-serif" font-size="14" lengthAdjust="spacingAndGlyphs" textLength="37" x="986" y="105.9482">Store</text><rect fill="#FEFECE" filter="url(#f1p5apuwjqtjou)" height="30.2969" style="stroke: #A80036; stroke-width: 1.5;" width="51" x="979" y="685.7734"/><text fill="#000000" font-family="sans-serif" font-size="14" lengthAdjust="spacingAndGlyphs" textLength="37" x="986" y="705.7686">Store</text><rect fill="#FEFECE" filter="url(#f1p5apuwjqtjou)" height="30.2969" style="stroke: #A80036; stroke-width: 1.5;" width="61" x="1044" y="85.9531"/><text fill="#000000" font-family="sans-serif" font-size="14" lengthAdjust="spacingAndGlyphs" textLength="47" x="1051" y="105.9482">API/DB</text><rect fill="#FEFECE" filter="url(#f1p5apuwjqtjou)" height="30.2969" style="stroke: #A80036; stroke-width: 1.5;" width="61" x="1044" y="685.7734"/><text fill="#000000" font-family="sans-serif" font-size="14" lengthAdjust="spacingAndGlyphs" textLength="47" x="1051" y="705.7686">API/DB</text><rect fill="#FFFFFF" filter="url(#f1p5apuwjqtjou)" height="44.2656" style="stroke: #A80036; stroke-width: 1.0;" width="10" x="264" y="196.6484"/><rect fill="#FFFFFF" filter="url(#f1p5apuwjqtjou)" height="39.1328" style="stroke: #A80036; stroke-width: 1.0;" width="10" x="264" y="310.6133"/><rect fill="#FFFFFF" filter="url(#f1p5apuwjqtjou)" height="26.5664" style="stroke: #A80036; stroke-width: 1.0;" width="10" x="438" y="284.0469"/><rect fill="#FFFFFF" filter="url(#f1p5apuwjqtjou)" height="44.2656" style="stroke: #A80036; stroke-width: 1.0;" width="10" x="642.5" y="506.8438"/><rect fill="#FFFFFF" filter="url(#f1p5apuwjqtjou)" height="74.5313" style="stroke: #A80036; stroke-width: 1.0;" width="10" x="807.5" y="551.1094"/><rect fill="#FFFFFF" filter="url(#f1p5apuwjqtjou)" height="29.1328" style="stroke: #A80036; stroke-width: 1.0;" width="10" x="1071.5" y="254.9141"/><rect fill="#FFFFFF" filter="url(#f1p5apuwjqtjou)" height="14" style="stroke: #A80036; stroke-width: 1.0;" width="10" x="1071.5" y="492.8438"/><polygon fill="#A80036" points="88,148.3828,98,152.3828,88,156.3828,92,152.3828" style="stroke: #A80036; stroke-width: 1.0;"/><line style="stroke: #A80036; stroke-width: 1.0;" x1="27" x2="94" y1="152.3828" y2="152.3828"/><text fill="#000000" font-family="sans-serif" font-size="13" lengthAdjust="spacingAndGlyphs" textLength="49" x="34" y="147.3169">interact</text><polygon fill="#A80036" points="252,192.6484,262,196.6484,252,200.6484,256,196.6484" style="stroke: #A80036; stroke-width: 1.0;"/><line style="stroke: #A80036; stroke-width: 1.0; stroke-dasharray: 2.0,2.0;" x1="100" x2="258" y1="196.6484" y2="196.6484"/><text fill="#000000" font-family="sans-serif" font-size="13" lengthAdjust="spacingAndGlyphs" textLength="109" x="107" y="176.4497">sync function call</text><text fill="#000000" font-family="sans-serif" font-size="13" lengthAdjust="spacingAndGlyphs" textLength="145" x="107" y="191.5825">decoupled by interface</text><path d="M279,167.9492 L279,192.9492 L464,192.9492 L464,177.9492 L454,167.9492 L279,167.9492 " fill="#FBFB77" filter="url(#f1p5apuwjqtjou)" style="stroke: #A80036; stroke-width: 1.0;"/><path d="M454,167.9492 L454,177.9492 L464,177.9492 L454,167.9492 " fill="#FBFB77" style="stroke: #A80036; stroke-width: 1.0;"/><text fill="#000000" font-family="sans-serif" font-size="13" lengthAdjust="spacingAndGlyphs" textLength="164" x="285" y="185.0161">pre-api-call business logic</text><polygon fill="#A80036" points="431,236.9141,441,240.9141,431,244.9141,435,240.9141" style="stroke: #A80036; stroke-width: 1.0;"/><line style="stroke: #A80036; stroke-width: 1.0; stroke-dasharray: 2.0,2.0;" x1="269" x2="437" y1="240.9141" y2="240.9141"/><text fill="#000000" font-family="sans-serif" font-size="13" lengthAdjust="spacingAndGlyphs" textLength="141" x="276" y="220.7153">call API through Model</text><text fill="#000000" font-family="sans-serif" font-size="13" lengthAdjust="spacingAndGlyphs" textLength="145" x="276" y="235.8481">decoupled by interface</text><polygon fill="#A80036" points="1059.5,250.9141,1069.5,254.9141,1059.5,258.9141,1063.5,254.9141" style="stroke: #A80036; stroke-width: 1.0;"/><line style="stroke: #A80036; stroke-width: 1.0;" x1="443" x2="1065.5" y1="254.9141" y2="254.9141"/><polygon fill="#A80036" points="459,280.0469,449,284.0469,459,288.0469,455,284.0469" style="stroke: #A80036; stroke-width: 1.0;"/><line style="stroke: #A80036; stroke-width: 1.0;" x1="453" x2="1075.5" y1="284.0469" y2="284.0469"/><text fill="#000000" font-family="sans-serif" font-size="13" lengthAdjust="spacingAndGlyphs" textLength="97" x="465" y="278.981">return the data</text><polygon fill="#A80036" points="285,306.6133,275,310.6133,285,314.6133,281,310.6133" style="stroke: #A80036; stroke-width: 1.0;"/><line style="stroke: #A80036; stroke-width: 1.0; stroke-dasharray: 2.0,2.0;" x1="279" x2="442" y1="310.6133" y2="310.6133"/><path d="M453,297.0469 L453,322.0469 L573,322.0469 L573,307.0469 L563,297.0469 L453,297.0469 " fill="#FBFB77" filter="url(#f1p5apuwjqtjou)" style="stroke: #A80036; stroke-width: 1.0;"/><path d="M563,297.0469 L563,307.0469 L573,307.0469 L563,297.0469 " fill="#FBFB77" style="stroke: #A80036; stroke-width: 1.0;"/><text fill="#000000" font-family="sans-serif" font-size="13" lengthAdjust="spacingAndGlyphs" textLength="99" x="459" y="314.1138">parse response</text><polygon fill="#A80036" points="111,345.7461,101,349.7461,111,353.7461,107,349.7461" style="stroke: #A80036; stroke-width: 1.0;"/><line style="stroke: #A80036; stroke-width: 1.0; stroke-dasharray: 2.0,2.0;" x1="105" x2="268" y1="349.7461" y2="349.7461"/><path d="M279,336.1797 L279,361.1797 L471,361.1797 L471,346.1797 L461,336.1797 L279,336.1797 " fill="#FBFB77" filter="url(#f1p5apuwjqtjou)" style="stroke: #A80036; stroke-width: 1.0;"/><path d="M461,336.1797 L461,346.1797 L471,346.1797 L461,336.1797 " fill="#FBFB77" style="stroke: #A80036; stroke-width: 1.0;"/><text fill="#000000" font-family="sans-serif" font-size="13" lengthAdjust="spacingAndGlyphs" textLength="171" x="285" y="353.2466">post-api-call business logic</text><polygon fill="#A80036" points="38,372.3125,28,376.3125,38,380.3125,34,376.3125" style="stroke: #A80036; stroke-width: 1.0;"/><line style="stroke: #A80036; stroke-width: 1.0; stroke-dasharray: 2.0,2.0;" x1="32" x2="99" y1="376.3125" y2="376.3125"/><polygon fill="#A80036" points="88,401.4453,98,405.4453,88,409.4453,92,405.4453" style="stroke: #A80036; stroke-width: 1.0;"/><line style="stroke: #A80036; stroke-width: 1.0;" x1="27" x2="94" y1="405.4453" y2="405.4453"/><text fill="#000000" font-family="sans-serif" font-size="13" lengthAdjust="spacingAndGlyphs" textLength="49" x="34" y="400.3794">interact</text><polygon fill="#A80036" points="501.5,430.5781,511.5,434.5781,501.5,438.5781,505.5,434.5781" style="stroke: #A80036; stroke-width: 1.0;"/><line style="stroke: #A80036; stroke-width: 1.0;" x1="100" x2="507.5" y1="434.5781" y2="434.5781"/><text fill="#000000" font-family="sans-serif" font-size="13" lengthAdjust="spacingAndGlyphs" textLength="86" x="107" y="429.5122">trigger Action</text><polygon fill="#A80036" points="635.5,474.8438,645.5,478.8438,635.5,482.8438,639.5,478.8438" style="stroke: #A80036; stroke-width: 1.0;"/><line style="stroke: #A80036; stroke-width: 1.0; stroke-dasharray: 2.0,2.0;" x1="513.5" x2="641.5" y1="478.8438" y2="478.8438"/><text fill="#000000" font-family="sans-serif" font-size="13" lengthAdjust="spacingAndGlyphs" textLength="98" x="520.5" y="458.645">dispatch Action</text><text fill="#000000" font-family="sans-serif" font-size="13" lengthAdjust="spacingAndGlyphs" textLength="110" x="520.5" y="473.7778">through an event</text><polygon fill="#A80036" points="1059.5,488.8438,1069.5,492.8438,1059.5,496.8438,1063.5,492.8438" style="stroke: #A80036; stroke-width: 1.0;"/><line style="stroke: #A80036; stroke-width: 1.0;" x1="647.5" x2="1065.5" y1="492.8438" y2="492.8438"/><polygon fill="#A80036" points="663.5,502.8438,653.5,506.8438,663.5,510.8438,659.5,506.8438" style="stroke: #A80036; stroke-width: 1.0;"/><line style="stroke: #A80036; stroke-width: 1.0;" x1="657.5" x2="1075.5" y1="506.8438" y2="506.8438"/><polygon fill="#A80036" points="795.5,547.1094,805.5,551.1094,795.5,555.1094,799.5,551.1094" style="stroke: #A80036; stroke-width: 1.0;"/><line style="stroke: #A80036; stroke-width: 1.0; stroke-dasharray: 2.0,2.0;" x1="647.5" x2="801.5" y1="551.1094" y2="551.1094"/><text fill="#000000" font-family="sans-serif" font-size="13" lengthAdjust="spacingAndGlyphs" textLength="136" x="654.5" y="530.9106">Action combined with</text><text fill="#000000" font-family="sans-serif" font-size="13" lengthAdjust="spacingAndGlyphs" textLength="108" x="654.5" y="546.0435">the "side effects"</text><polygon fill="#A80036" points="994.5,621.6406,1004.5,625.6406,994.5,629.6406,998.5,625.6406" style="stroke: #A80036; stroke-width: 1.0;"/><line style="stroke: #A80036; stroke-width: 1.0; stroke-dasharray: 2.0,2.0;" x1="812.5" x2="1000.5" y1="625.6406" y2="625.6406"/><text fill="#000000" font-family="sans-serif" font-size="13" lengthAdjust="spacingAndGlyphs" textLength="162" x="819.5" y="575.1763">This Reducer updates the</text><text fill="#000000" font-family="sans-serif" font-size="13" lengthAdjust="spacingAndGlyphs" textLength="144" x="819.5" y="590.3091">Store with a new State</text><text fill="#000000" font-family="sans-serif" font-size="13" lengthAdjust="spacingAndGlyphs" textLength="165" x="819.5" y="605.4419">depending on what Action</text><text fill="#000000" font-family="sans-serif" font-size="13" lengthAdjust="spacingAndGlyphs" textLength="69" x="819.5" y="620.5747">it receives.</text><polygon fill="#A80036" points="111,650.7734,101,654.7734,111,658.7734,107,654.7734" style="stroke: #A80036; stroke-width: 1.0;"/><line style="stroke: #A80036; stroke-width: 1.0; stroke-dasharray: 2.0,2.0;" x1="105" x2="1005.5" y1="654.7734" y2="654.7734"/><text fill="#000000" font-family="sans-serif" font-size="13" lengthAdjust="spacingAndGlyphs" textLength="191" x="117" y="649.7075">notify the View using an event</text><polygon fill="#A80036" points="38,664.7734,28,668.7734,38,672.7734,34,668.7734" style="stroke: #A80036; stroke-width: 1.0;"/><line style="stroke: #A80036; stroke-width: 1.0; stroke-dasharray: 2.0,2.0;" x1="32" x2="99" y1="668.7734" y2="668.7734"/><!--MD5=[3ed7be015631d9b666a8cc85545624b7]
@startuml
title MVVM vs Redux

actor User

participant "View"

box "MVVM"
participant "ViewModel"
participant "Model"
end box

box "Redux"
participant "Action"
participant "Middleware"
participant "Reducer"
participant "Store"
end box

participant "API/DB"

User -> View: interact
View - -> ViewModel: sync function call\ndecoupled by interface
activate ViewModel
note right
pre-api-call business logic
end note
ViewModel - -> Model: call API through Model\ndecoupled by interface
deactivate ViewModel
Model -> "API/DB"
activate "API/DB"
"API/DB" -> Model: return the data
deactivate "API/DB"
activate Model
Model - -> ViewModel
note right
parse response
end note
deactivate Model
activate ViewModel
ViewModel - -> View
note right
post-api-call business logic
end note
deactivate ViewModel
View - -> User

User -> View: interact
View -> Action: trigger Action 
Action - -> Middleware: dispatch Action\nthrough an event
Middleware -> "API/DB"
activate "API/DB"
"API/DB" -> Middleware
deactivate "API/DB"
activate Middleware
Middleware - -> Reducer: Action combined with\nthe "side effects"
deactivate Middleware
activate Reducer
Reducer - -> Store: This Reducer updates the\nStore with a new State\ndepending on what Action\nit receives.
deactivate Reducer
deactivate Middleware
Store - -> View: notify the View using an event
View - -> User
@enduml

PlantUML version 1.2020.01beta16(Unknown compile time)
(GPL source distribution)
Java Runtime: Java(TM) SE Runtime Environment
JVM: Java HotSpot(TM) 64-Bit Server VM
Java Version: 1.7.0_25-b15
Operating System: Linux
Default Encoding: UTF-8
Language: en
Country: US
--></g></svg>