<?xml version="1.0" encoding="UTF-8" standalone="no"?><svg xmlns="http://www.w3.org/2000/svg" xmlns:xlink="http://www.w3.org/1999/xlink" contentScriptType="application/ecmascript" contentStyleType="text/css" height="1888px" preserveAspectRatio="none" style="width:1500px;height:1888px;background:#FFFFFF;" version="1.1" viewBox="0 0 1500 1888" width="1500px" zoomAndPan="magnify"><defs><filter height="300%" id="f12dsa7yfq1zm4" width="300%" x="-1" y="-1"><feGaussianBlur result="blurOut" stdDeviation="2.0"/><feColorMatrix in="blurOut" result="blurOut2" type="matrix" values="0 0 0 0 0 0 0 0 0 0 0 0 0 0 0 0 0 0 .4 0"/><feOffset dx="4.0" dy="4.0" in="blurOut2" result="blurOut3"/><feBlend in="SourceGraphic" in2="blurOut3" mode="normal"/></filter></defs><g><rect fill="#DDDDDD" height="1876.0938" style="stroke:#A80036;stroke-width:1.0;" width="430.5" x="130.5" y="6"/><text fill="#000000" font-family="sans-serif" font-size="13" font-weight="bold" lengthAdjust="spacing" textLength="79" x="306.25" y="18.5684">Front Office</text><rect fill="#DDDDDD" height="1876.0938" style="stroke:#A80036;stroke-width:1.0;" width="250.5" x="563" y="6"/><text fill="#000000" font-family="sans-serif" font-size="13" font-weight="bold" lengthAdjust="spacing" textLength="90" x="643.25" y="18.5684">Middle Office</text><rect fill="#DDDDDD" height="1876.0938" style="stroke:#A80036;stroke-width:1.0;" width="291" x="815.5" y="6"/><text fill="#000000" font-family="sans-serif" font-size="13" font-weight="bold" lengthAdjust="spacing" textLength="75" x="923.5" y="18.5684">Back Office</text><rect fill="#FFFFFF" filter="url(#f12dsa7yfq1zm4)" height="199.1055" style="stroke:#A80036;stroke-width:1.0;" width="10" x="150" y="140.1094"/><rect fill="#FFFFFF" filter="url(#f12dsa7yfq1zm4)" height="29.3105" style="stroke:#A80036;stroke-width:1.0;" width="10" x="150" y="410.8359"/><rect fill="#FFFFFF" filter="url(#f12dsa7yfq1zm4)" height="71.6211" style="stroke:#A80036;stroke-width:1.0;" width="10" x="280" y="339.2148"/><rect fill="#FFFFFF" filter="url(#f12dsa7yfq1zm4)" height="347.3477" style="stroke:#A80036;stroke-width:1.0;" width="10" x="280" y="440.1465"/><rect fill="#FFFFFF" filter="url(#f12dsa7yfq1zm4)" height="305.0371" style="stroke:#A80036;stroke-width:1.0;" width="10" x="490" y="496.457"/><rect fill="#FFFFFF" filter="url(#f12dsa7yfq1zm4)" height="566.6953" style="stroke:#A80036;stroke-width:1.0;" width="10" x="620.5" y="801.4941"/><rect fill="#FFFFFF" filter="url(#f12dsa7yfq1zm4)" height="14" style="stroke:#A80036;stroke-width:1.0;" width="10" x="620.5" y="1404.5"/><rect fill="#FFFFFF" filter="url(#f12dsa7yfq1zm4)" height="14" style="stroke:#A80036;stroke-width:1.0;" width="10" x="620.5" y="1506.4316"/><rect fill="#FFFFFF" filter="url(#f12dsa7yfq1zm4)" height="142.1738" style="stroke:#A80036;stroke-width:1.0;" width="10" x="759.5" y="1190.7051"/><rect fill="#FFFFFF" filter="url(#f12dsa7yfq1zm4)" height="72.6211" style="stroke:#A80036;stroke-width:1.0;" width="10" x="886" y="1404.5"/><rect fill="#FFFFFF" filter="url(#f12dsa7yfq1zm4)" height="57.3105" style="stroke:#A80036;stroke-width:1.0;" width="10" x="1032.5" y="1506.4316"/><rect fill="#FFFFFF" filter="url(#f12dsa7yfq1zm4)" height="34.3105" style="stroke:#A80036;stroke-width:1.0;" width="10" x="1136.5" y="525.7676"/><rect fill="#FFFFFF" filter="url(#f12dsa7yfq1zm4)" height="29.3105" style="stroke:#A80036;stroke-width:1.0;" width="10" x="1136.5" y="1447.8105"/><rect fill="#FFFFFF" filter="url(#f12dsa7yfq1zm4)" height="14" style="stroke:#A80036;stroke-width:1.0;" width="10" x="1207" y="1549.7422"/><rect fill="#FFFFFF" filter="url(#f12dsa7yfq1zm4)" height="42" style="stroke:#A80036;stroke-width:1.0;" width="10" x="1280.5" y="1593.0527"/><rect fill="#FFFFFF" filter="url(#f12dsa7yfq1zm4)" height="77.6211" style="stroke:#A80036;stroke-width:1.0;" width="10" x="1351.5" y="1664.3633"/><rect fill="#FFFFFF" filter="url(#f12dsa7yfq1zm4)" height="14" style="stroke:#A80036;stroke-width:1.0;" width="10" x="1438" y="1607.0527"/><rect fill="#FFFFFF" filter="url(#f12dsa7yfq1zm4)" height="14" style="stroke:#A80036;stroke-width:1.0;" width="10" x="1438" y="1678.3633"/><line style="stroke:#A80036;stroke-width:1.0;stroke-dasharray:5.0,5.0;" x1="28" x2="28" y1="108.7988" y2="1795.6055"/><line style="stroke:#A80036;stroke-width:1.0;stroke-dasharray:5.0,5.0;" x1="154.5" x2="154.5" y1="108.7988" y2="1795.6055"/><line style="stroke:#A80036;stroke-width:1.0;stroke-dasharray:5.0,5.0;" x1="285" x2="285" y1="108.7988" y2="1795.6055"/><line style="stroke:#A80036;stroke-width:1.0;stroke-dasharray:5.0,5.0;" x1="495" x2="495" y1="108.7988" y2="1795.6055"/><line style="stroke:#A80036;stroke-width:1.0;stroke-dasharray:5.0,5.0;" x1="625" x2="625" y1="108.7988" y2="1795.6055"/><line style="stroke:#A80036;stroke-width:1.0;stroke-dasharray:5.0,5.0;" x1="764.5" x2="764.5" y1="108.7988" y2="1795.6055"/><line style="stroke:#A80036;stroke-width:1.0;stroke-dasharray:5.0,5.0;" x1="890.5" x2="890.5" y1="108.7988" y2="1795.6055"/><line style="stroke:#A80036;stroke-width:1.0;stroke-dasharray:5.0,5.0;" x1="1037.5" x2="1037.5" y1="108.7988" y2="1795.6055"/><line style="stroke:#A80036;stroke-width:1.0;stroke-dasharray:5.0,5.0;" x1="1141.5" x2="1141.5" y1="108.7988" y2="1795.6055"/><line style="stroke:#A80036;stroke-width:1.0;stroke-dasharray:5.0,5.0;" x1="1211.5" x2="1211.5" y1="108.7988" y2="1795.6055"/><line style="stroke:#A80036;stroke-width:1.0;stroke-dasharray:5.0,5.0;" x1="1285.5" x2="1285.5" y1="108.7988" y2="1795.6055"/><line style="stroke:#A80036;stroke-width:1.0;stroke-dasharray:5.0,5.0;" x1="1356.5" x2="1356.5" y1="108.7988" y2="1795.6055"/><line style="stroke:#A80036;stroke-width:1.0;stroke-dasharray:5.0,5.0;" x1="1442.5" x2="1442.5" y1="108.7988" y2="1795.6055"/><text fill="#000000" font-family="sans-serif" font-size="14" lengthAdjust="spacing" textLength="40" x="5" y="105.8457">Client</text><ellipse cx="28" cy="35.3105" fill="#FEFECE" filter="url(#f12dsa7yfq1zm4)" rx="8" ry="8" style="stroke:#A80036;stroke-width:2.0;"/><path d="M28,43.3105 L28,70.3105 M15,51.3105 L41,51.3105 M28,70.3105 L15,85.3105 M28,70.3105 L41,85.3105 " fill="none" filter="url(#f12dsa7yfq1zm4)" style="stroke:#A80036;stroke-width:2.0;"/><text fill="#000000" font-family="sans-serif" font-size="14" lengthAdjust="spacing" textLength="40" x="5" y="1808.1406">Client</text><ellipse cx="28" cy="1821.0938" fill="#FEFECE" filter="url(#f12dsa7yfq1zm4)" rx="8" ry="8" style="stroke:#A80036;stroke-width:2.0;"/><path d="M28,1829.0938 L28,1856.0938 M15,1837.0938 L41,1837.0938 M28,1856.0938 L15,1871.0938 M28,1856.0938 L41,1871.0938 " fill="none" filter="url(#f12dsa7yfq1zm4)" style="stroke:#A80036;stroke-width:2.0;"/><text fill="#000000" font-family="sans-serif" font-size="14" lengthAdjust="spacing" textLength="35" x="134.5" y="105.8457">Sales</text><ellipse cx="155" cy="35.3105" fill="#FEFECE" filter="url(#f12dsa7yfq1zm4)" rx="8" ry="8" style="stroke:#A80036;stroke-width:2.0;"/><path d="M155,43.3105 L155,70.3105 M142,51.3105 L168,51.3105 M155,70.3105 L142,85.3105 M155,70.3105 L168,85.3105 " fill="none" filter="url(#f12dsa7yfq1zm4)" style="stroke:#A80036;stroke-width:2.0;"/><text fill="#000000" font-family="sans-serif" font-size="14" lengthAdjust="spacing" textLength="35" x="134.5" y="1808.1406">Sales</text><ellipse cx="155" cy="1821.0938" fill="#FEFECE" filter="url(#f12dsa7yfq1zm4)" rx="8" ry="8" style="stroke:#A80036;stroke-width:2.0;"/><path d="M155,1829.0938 L155,1856.0938 M142,1837.0938 L168,1837.0938 M155,1856.0938 L142,1871.0938 M155,1856.0938 L168,1871.0938 " fill="none" filter="url(#f12dsa7yfq1zm4)" style="stroke:#A80036;stroke-width:2.0;"/><text fill="#000000" font-family="sans-serif" font-size="14" lengthAdjust="spacing" textLength="46" x="259" y="105.8457">Trader</text><ellipse cx="285" cy="35.3105" fill="#FEFECE" filter="url(#f12dsa7yfq1zm4)" rx="8" ry="8" style="stroke:#A80036;stroke-width:2.0;"/><path d="M285,43.3105 L285,70.3105 M272,51.3105 L298,51.3105 M285,70.3105 L272,85.3105 M285,70.3105 L298,85.3105 " fill="none" filter="url(#f12dsa7yfq1zm4)" style="stroke:#A80036;stroke-width:2.0;"/><text fill="#000000" font-family="sans-serif" font-size="14" lengthAdjust="spacing" textLength="46" x="259" y="1808.1406">Trader</text><ellipse cx="285" cy="1821.0938" fill="#FEFECE" filter="url(#f12dsa7yfq1zm4)" rx="8" ry="8" style="stroke:#A80036;stroke-width:2.0;"/><path d="M285,1829.0938 L285,1856.0938 M272,1837.0938 L298,1837.0938 M285,1856.0938 L272,1871.0938 M285,1856.0938 L298,1871.0938 " fill="none" filter="url(#f12dsa7yfq1zm4)" style="stroke:#A80036;stroke-width:2.0;"/><rect fill="#FEFECE" filter="url(#f12dsa7yfq1zm4)" height="30.4883" style="stroke:#A80036;stroke-width:1.5;" width="120" x="433" y="73.3105"/><text fill="#000000" font-family="sans-serif" font-size="14" lengthAdjust="spacing" textLength="106" x="440" y="93.8457">Trading System</text><rect fill="#FEFECE" filter="url(#f12dsa7yfq1zm4)" height="30.4883" style="stroke:#A80036;stroke-width:1.5;" width="120" x="433" y="1794.6055"/><text fill="#000000" font-family="sans-serif" font-size="14" lengthAdjust="spacing" textLength="106" x="440" y="1815.1406">Trading System</text><rect fill="#FEFECE" filter="url(#f12dsa7yfq1zm4)" height="30.4883" style="stroke:#A80036;stroke-width:1.5;" width="113" x="567" y="73.3105"/><text fill="#000000" font-family="sans-serif" font-size="14" lengthAdjust="spacing" textLength="99" x="574" y="93.8457">Trade Capture</text><rect fill="#FEFECE" filter="url(#f12dsa7yfq1zm4)" height="30.4883" style="stroke:#A80036;stroke-width:1.5;" width="113" x="567" y="1794.6055"/><text fill="#000000" font-family="sans-serif" font-size="14" lengthAdjust="spacing" textLength="99" x="574" y="1815.1406">Trade Capture</text><rect fill="#FEFECE" filter="url(#f12dsa7yfq1zm4)" height="30.4883" style="stroke:#A80036;stroke-width:1.5;" width="86" x="719.5" y="73.3105"/><text fill="#000000" font-family="sans-serif" font-size="14" lengthAdjust="spacing" textLength="72" x="726.5" y="93.8457">Static Data</text><rect fill="#FEFECE" filter="url(#f12dsa7yfq1zm4)" height="30.4883" style="stroke:#A80036;stroke-width:1.5;" width="86" x="719.5" y="1794.6055"/><text fill="#000000" font-family="sans-serif" font-size="14" lengthAdjust="spacing" textLength="72" x="726.5" y="1815.1406">Static Data</text><rect fill="#FEFECE" filter="url(#f12dsa7yfq1zm4)" height="30.4883" style="stroke:#A80036;stroke-width:1.5;" width="139" x="819.5" y="73.3105"/><text fill="#000000" font-family="sans-serif" font-size="14" lengthAdjust="spacing" textLength="125" x="826.5" y="93.8457">Settlement System</text><rect fill="#FEFECE" filter="url(#f12dsa7yfq1zm4)" height="30.4883" style="stroke:#A80036;stroke-width:1.5;" width="139" x="819.5" y="1794.6055"/><text fill="#000000" font-family="sans-serif" font-size="14" lengthAdjust="spacing" textLength="125" x="826.5" y="1815.1406">Settlement System</text><rect fill="#FEFECE" filter="url(#f12dsa7yfq1zm4)" height="30.4883" style="stroke:#A80036;stroke-width:1.5;" width="126" x="972.5" y="73.3105"/><text fill="#000000" font-family="sans-serif" font-size="14" lengthAdjust="spacing" textLength="112" x="979.5" y="93.8457">Trade Reporting</text><rect fill="#FEFECE" filter="url(#f12dsa7yfq1zm4)" height="30.4883" style="stroke:#A80036;stroke-width:1.5;" width="126" x="972.5" y="1794.6055"/><text fill="#000000" font-family="sans-serif" font-size="14" lengthAdjust="spacing" textLength="112" x="979.5" y="1815.1406">Trade Reporting</text><rect fill="#FEFECE" filter="url(#f12dsa7yfq1zm4)" height="30.4883" style="stroke:#A80036;stroke-width:1.5;" width="54" x="1112.5" y="73.3105"/><text fill="#000000" font-family="sans-serif" font-size="14" lengthAdjust="spacing" textLength="40" x="1119.5" y="93.8457">STO B</text><rect fill="#FEFECE" filter="url(#f12dsa7yfq1zm4)" height="30.4883" style="stroke:#A80036;stroke-width:1.5;" width="54" x="1112.5" y="1794.6055"/><text fill="#000000" font-family="sans-serif" font-size="14" lengthAdjust="spacing" textLength="40" x="1119.5" y="1815.1406">STO B</text><rect fill="#FEFECE" filter="url(#f12dsa7yfq1zm4)" height="30.4883" style="stroke:#A80036;stroke-width:1.5;" width="59" x="1180.5" y="73.3105"/><text fill="#000000" font-family="sans-serif" font-size="14" lengthAdjust="spacing" textLength="45" x="1187.5" y="93.8457">HKSFC</text><rect fill="#FEFECE" filter="url(#f12dsa7yfq1zm4)" height="30.4883" style="stroke:#A80036;stroke-width:1.5;" width="59" x="1180.5" y="1794.6055"/><text fill="#000000" font-family="sans-serif" font-size="14" lengthAdjust="spacing" textLength="45" x="1187.5" y="1815.1406">HKSFC</text><rect fill="#FEFECE" filter="url(#f12dsa7yfq1zm4)" height="30.4883" style="stroke:#A80036;stroke-width:1.5;" width="60" x="1253.5" y="73.3105"/><text fill="#000000" font-family="sans-serif" font-size="14" lengthAdjust="spacing" textLength="46" x="1260.5" y="93.8457">CCASS</text><rect fill="#FEFECE" filter="url(#f12dsa7yfq1zm4)" height="30.4883" style="stroke:#A80036;stroke-width:1.5;" width="60" x="1253.5" y="1794.6055"/><text fill="#000000" font-family="sans-serif" font-size="14" lengthAdjust="spacing" textLength="46" x="1260.5" y="1815.1406">CCASS</text><rect fill="#FEFECE" filter="url(#f12dsa7yfq1zm4)" height="30.4883" style="stroke:#A80036;stroke-width:1.5;" width="54" x="1327.5" y="73.3105"/><text fill="#000000" font-family="sans-serif" font-size="14" lengthAdjust="spacing" textLength="40" x="1334.5" y="93.8457">HKICL</text><rect fill="#FEFECE" filter="url(#f12dsa7yfq1zm4)" height="30.4883" style="stroke:#A80036;stroke-width:1.5;" width="54" x="1327.5" y="1794.6055"/><text fill="#000000" font-family="sans-serif" font-size="14" lengthAdjust="spacing" textLength="40" x="1334.5" y="1815.1406">HKICL</text><rect fill="#FEFECE" filter="url(#f12dsa7yfq1zm4)" height="30.4883" style="stroke:#A80036;stroke-width:1.5;" width="91" x="1395.5" y="73.3105"/><text fill="#000000" font-family="sans-serif" font-size="14" lengthAdjust="spacing" textLength="77" x="1402.5" y="93.8457">Custodians</text><rect fill="#FEFECE" filter="url(#f12dsa7yfq1zm4)" height="30.4883" style="stroke:#A80036;stroke-width:1.5;" width="91" x="1395.5" y="1794.6055"/><text fill="#000000" font-family="sans-serif" font-size="14" lengthAdjust="spacing" textLength="77" x="1402.5" y="1815.1406">Custodians</text><rect fill="#FFFFFF" filter="url(#f12dsa7yfq1zm4)" height="199.1055" style="stroke:#A80036;stroke-width:1.0;" width="10" x="150" y="140.1094"/><rect fill="#FFFFFF" filter="url(#f12dsa7yfq1zm4)" height="29.3105" style="stroke:#A80036;stroke-width:1.0;" width="10" x="150" y="410.8359"/><rect fill="#FFFFFF" filter="url(#f12dsa7yfq1zm4)" height="71.6211" style="stroke:#A80036;stroke-width:1.0;" width="10" x="280" y="339.2148"/><rect fill="#FFFFFF" filter="url(#f12dsa7yfq1zm4)" height="347.3477" style="stroke:#A80036;stroke-width:1.0;" width="10" x="280" y="440.1465"/><rect fill="#FFFFFF" filter="url(#f12dsa7yfq1zm4)" height="305.0371" style="stroke:#A80036;stroke-width:1.0;" width="10" x="490" y="496.457"/><rect fill="#FFFFFF" filter="url(#f12dsa7yfq1zm4)" height="566.6953" style="stroke:#A80036;stroke-width:1.0;" width="10" x="620.5" y="801.4941"/><rect fill="#FFFFFF" filter="url(#f12dsa7yfq1zm4)" height="14" style="stroke:#A80036;stroke-width:1.0;" width="10" x="620.5" y="1404.5"/><rect fill="#FFFFFF" filter="url(#f12dsa7yfq1zm4)" height="14" style="stroke:#A80036;stroke-width:1.0;" width="10" x="620.5" y="1506.4316"/><rect fill="#FFFFFF" filter="url(#f12dsa7yfq1zm4)" height="142.1738" style="stroke:#A80036;stroke-width:1.0;" width="10" x="759.5" y="1190.7051"/><rect fill="#FFFFFF" filter="url(#f12dsa7yfq1zm4)" height="72.6211" style="stroke:#A80036;stroke-width:1.0;" width="10" x="886" y="1404.5"/><rect fill="#FFFFFF" filter="url(#f12dsa7yfq1zm4)" height="57.3105" style="stroke:#A80036;stroke-width:1.0;" width="10" x="1032.5" y="1506.4316"/><rect fill="#FFFFFF" filter="url(#f12dsa7yfq1zm4)" height="34.3105" style="stroke:#A80036;stroke-width:1.0;" width="10" x="1136.5" y="525.7676"/><rect fill="#FFFFFF" filter="url(#f12dsa7yfq1zm4)" height="29.3105" style="stroke:#A80036;stroke-width:1.0;" width="10" x="1136.5" y="1447.8105"/><rect fill="#FFFFFF" filter="url(#f12dsa7yfq1zm4)" height="14" style="stroke:#A80036;stroke-width:1.0;" width="10" x="1207" y="1549.7422"/><rect fill="#FFFFFF" filter="url(#f12dsa7yfq1zm4)" height="42" style="stroke:#A80036;stroke-width:1.0;" width="10" x="1280.5" y="1593.0527"/><rect fill="#FFFFFF" filter="url(#f12dsa7yfq1zm4)" height="77.6211" style="stroke:#A80036;stroke-width:1.0;" width="10" x="1351.5" y="1664.3633"/><rect fill="#FFFFFF" filter="url(#f12dsa7yfq1zm4)" height="14" style="stroke:#A80036;stroke-width:1.0;" width="10" x="1438" y="1607.0527"/><rect fill="#FFFFFF" filter="url(#f12dsa7yfq1zm4)" height="14" style="stroke:#A80036;stroke-width:1.0;" width="10" x="1438" y="1678.3633"/><polygon fill="#A80036" points="138,136.1094,148,140.1094,138,144.1094,142,140.1094" style="stroke:#A80036;stroke-width:1.0;"/><line style="stroke:#A80036;stroke-width:1.0;" x1="28" x2="144" y1="140.1094" y2="140.1094"/><text fill="#000000" font-family="sans-serif" font-size="13" lengthAdjust="spacing" textLength="103" x="35" y="135.3672">Order Placement</text><line style="stroke:#A80036;stroke-width:1.0;" x1="160" x2="202" y1="233.1621" y2="233.1621"/><line style="stroke:#A80036;stroke-width:1.0;" x1="202" x2="202" y1="233.1621" y2="246.1621"/><line style="stroke:#A80036;stroke-width:1.0;" x1="161" x2="202" y1="246.1621" y2="246.1621"/><polygon fill="#A80036" points="171,242.1621,161,246.1621,171,250.1621,167,246.1621" style="stroke:#A80036;stroke-width:1.0;"/><text fill="#000000" font-family="sans-serif" font-size="13" lengthAdjust="spacing" textLength="106" x="167" y="228.4199">Record the Order</text><path d="M285,153.1094 L285,308.1094 L499,308.1094 L499,163.1094 L489,153.1094 L285,153.1094 " fill="#FBFB77" filter="url(#f12dsa7yfq1zm4)" style="stroke:#A80036;stroke-width:1.0;"/><path d="M489,153.1094 L489,163.1094 L499,163.1094 L489,153.1094 " fill="#FBFB77" style="stroke:#A80036;stroke-width:1.0;"/><text fill="#000000" font-family="sans-serif" font-size="13" lengthAdjust="spacing" textLength="172" x="291" y="170.6777">10:00 AM HKT 2020/10/05</text><line style="stroke:#A80036;stroke-width:1.0;" x1="286" x2="498" y1="173.4199" y2="173.4199"/><text fill="#000000" font-family="sans-serif" font-size="13" lengthAdjust="spacing" textLength="70" x="291" y="189.9883">Stock: AAA</text><text fill="#000000" font-family="sans-serif" font-size="13" lengthAdjust="spacing" textLength="78" x="291" y="205.2988">Price: $1000</text><text fill="#000000" font-family="sans-serif" font-size="13" lengthAdjust="spacing" textLength="102" x="291" y="220.6094">Quantity: 10000</text><text fill="#000000" font-family="sans-serif" font-size="13" lengthAdjust="spacing" textLength="159" x="291" y="235.9199">Operation: Buy; Limit; Fill</text><text fill="#000000" font-family="sans-serif" font-size="13" lengthAdjust="spacing" textLength="154" x="291" y="251.2305">Trade Date: 2020/10/06</text><text fill="#000000" font-family="sans-serif" font-size="13" lengthAdjust="spacing" textLength="153" x="291" y="266.541">Value Date: 2020/10/08</text><text fill="#000000" font-family="sans-serif" font-size="13" lengthAdjust="spacing" textLength="193" x="291" y="281.8516">Others: 4000 to A account and</text><text fill="#000000" font-family="sans-serif" font-size="13" lengthAdjust="spacing" textLength="114" x="335" y="297.1621">6000 to B account</text><polygon fill="#A80036" points="268,335.2148,278,339.2148,268,343.2148,272,339.2148" style="stroke:#A80036;stroke-width:1.0;"/><line style="stroke:#A80036;stroke-width:1.0;" x1="155" x2="274" y1="339.2148" y2="339.2148"/><text fill="#000000" font-family="sans-serif" font-size="13" lengthAdjust="spacing" textLength="70" x="162" y="334.4727">Forwarding</text><line style="stroke:#A80036;stroke-width:1.0;" x1="290" x2="332" y1="368.5254" y2="368.5254"/><line style="stroke:#A80036;stroke-width:1.0;" x1="332" x2="332" y1="368.5254" y2="381.5254"/><line style="stroke:#A80036;stroke-width:1.0;" x1="291" x2="332" y1="381.5254" y2="381.5254"/><polygon fill="#A80036" points="301,377.5254,291,381.5254,301,385.5254,297,381.5254" style="stroke:#A80036;stroke-width:1.0;"/><text fill="#000000" font-family="sans-serif" font-size="13" lengthAdjust="spacing" textLength="115" x="297" y="363.7832">Order Accessment</text><polygon fill="#A80036" points="171,406.8359,161,410.8359,171,414.8359,167,410.8359" style="stroke:#A80036;stroke-width:1.0;"/><line style="stroke:#A80036;stroke-width:1.0;stroke-dasharray:2.0,2.0;" x1="165" x2="284" y1="410.8359" y2="410.8359"/><text fill="#000000" font-family="sans-serif" font-size="13" lengthAdjust="spacing" textLength="86" x="177" y="406.0938">Response: OK</text><polygon fill="#A80036" points="39,436.1465,29,440.1465,39,444.1465,35,440.1465" style="stroke:#A80036;stroke-width:1.0;"/><line style="stroke:#A80036;stroke-width:1.0;stroke-dasharray:2.0,2.0;" x1="33" x2="154" y1="440.1465" y2="440.1465"/><text fill="#000000" font-family="sans-serif" font-size="13" lengthAdjust="spacing" textLength="18" x="45" y="435.4043">OK</text><line style="stroke:#A80036;stroke-width:1.0;" x1="290" x2="332" y1="454.1465" y2="454.1465"/><line style="stroke:#A80036;stroke-width:1.0;" x1="332" x2="332" y1="454.1465" y2="467.1465"/><line style="stroke:#A80036;stroke-width:1.0;" x1="291" x2="332" y1="467.1465" y2="467.1465"/><polygon fill="#A80036" points="301,463.1465,291,467.1465,301,471.1465,297,467.1465" style="stroke:#A80036;stroke-width:1.0;"/><polygon fill="#A80036" points="478,492.457,488,496.457,478,500.457,482,496.457" style="stroke:#A80036;stroke-width:1.0;"/><line style="stroke:#A80036;stroke-width:1.0;" x1="290" x2="484" y1="496.457" y2="496.457"/><text fill="#000000" font-family="sans-serif" font-size="13" lengthAdjust="spacing" textLength="181" x="297" y="491.7148">Trade Execution and Capture</text><polygon fill="#A80036" points="1124.5,521.7676,1134.5,525.7676,1124.5,529.7676,1128.5,525.7676" style="stroke:#A80036;stroke-width:1.0;"/><line style="stroke:#A80036;stroke-width:1.0;" x1="500" x2="1130.5" y1="525.7676" y2="525.7676"/><text fill="#000000" font-family="sans-serif" font-size="13" lengthAdjust="spacing" textLength="101" x="507" y="521.0254">Trade Execution</text><polygon fill="#A80036" points="511,556.0781,501,560.0781,511,564.0781,507,560.0781" style="stroke:#A80036;stroke-width:1.0;"/><line style="stroke:#A80036;stroke-width:1.0;stroke-dasharray:2.0,2.0;" x1="505" x2="1140.5" y1="560.0781" y2="560.0781"/><path d="M1151,538.7676 L1151,578.7676 L1404,578.7676 L1404,548.7676 L1394,538.7676 L1151,538.7676 " fill="#FBFB77" filter="url(#f12dsa7yfq1zm4)" style="stroke:#A80036;stroke-width:1.0;"/><path d="M1394,538.7676 L1394,548.7676 L1404,548.7676 L1394,538.7676 " fill="#FBFB77" style="stroke:#A80036;stroke-width:1.0;"/><text fill="#000000" font-family="sans-serif" font-size="13" lengthAdjust="spacing" textLength="232" x="1157" y="556.3359">It could be Exchanges, other STOs or</text><text fill="#000000" font-family="sans-serif" font-size="13" lengthAdjust="spacing" textLength="119" x="1157" y="571.6465">Institute Investors.</text><line style="stroke:#A80036;stroke-width:1.0;" x1="500" x2="542" y1="677.4414" y2="677.4414"/><line style="stroke:#A80036;stroke-width:1.0;" x1="542" x2="542" y1="677.4414" y2="690.4414"/><line style="stroke:#A80036;stroke-width:1.0;" x1="501" x2="542" y1="690.4414" y2="690.4414"/><polygon fill="#A80036" points="511,686.4414,501,690.4414,511,694.4414,507,690.4414" style="stroke:#A80036;stroke-width:1.0;"/><text fill="#000000" font-family="sans-serif" font-size="13" lengthAdjust="spacing" textLength="88" x="507" y="672.6992">Trade Capture</text><path d="M607,593.3887 L607,756.3887 L800,756.3887 L800,603.3887 L790,593.3887 L607,593.3887 " fill="#FBFB77" filter="url(#f12dsa7yfq1zm4)" style="stroke:#A80036;stroke-width:1.0;"/><path d="M790,593.3887 L790,603.3887 L800,603.3887 L790,593.3887 " fill="#FBFB77" style="stroke:#A80036;stroke-width:1.0;"/><text fill="#000000" font-family="sans-serif" font-size="13" lengthAdjust="spacing" textLength="172" x="613" y="610.957">10:00 AM HKT 2020/10/06</text><line style="stroke:#A80036;stroke-width:1.0;" x1="608" x2="799" y1="613.6992" y2="613.6992"/><text fill="#000000" font-family="sans-serif" font-size="13" lengthAdjust="spacing" textLength="70" x="613" y="630.2676">Stock: AAA</text><text fill="#000000" font-family="sans-serif" font-size="13" lengthAdjust="spacing" textLength="102" x="613" y="645.5781">Quantity: 10000</text><text fill="#000000" font-family="sans-serif" font-size="13" lengthAdjust="spacing" textLength="159" x="613" y="660.8887">Operation: Buy; Limit; Fill</text><text fill="#000000" font-family="sans-serif" font-size="13" lengthAdjust="spacing" textLength="154" x="613" y="676.1992">Trade Date: 2020/10/06</text><text fill="#000000" font-family="sans-serif" font-size="13" lengthAdjust="spacing" textLength="153" x="613" y="691.5098">Value Date: 2020/10/08</text><line style="stroke:#A80036;stroke-width:1.0;stroke-dasharray:1.0,2.0;" x1="608" x2="799" y1="698.252" y2="698.252"/><text fill="#000000" font-family="sans-serif" font-size="13" lengthAdjust="spacing" textLength="70" x="613" y="714.8203">Price: $998</text><text fill="#000000" font-family="sans-serif" font-size="13" lengthAdjust="spacing" textLength="158" x="613" y="730.1309">Trade Time: 3:00 PM HKT</text><text fill="#000000" font-family="sans-serif" font-size="13" lengthAdjust="spacing" textLength="126" x="613" y="745.4414">Counterparty: STO B</text><polygon fill="#A80036" points="296,783.4941,286,787.4941,296,791.4941,292,787.4941" style="stroke:#A80036;stroke-width:1.0;"/><line style="stroke:#A80036;stroke-width:1.0;stroke-dasharray:2.0,2.0;" x1="290" x2="489" y1="787.4941" y2="787.4941"/><text fill="#000000" font-family="sans-serif" font-size="13" lengthAdjust="spacing" textLength="18" x="302" y="782.752">OK</text><polygon fill="#A80036" points="608.5,797.4941,618.5,801.4941,608.5,805.4941,612.5,801.4941" style="stroke:#A80036;stroke-width:1.0;"/><line style="stroke:#A80036;stroke-width:1.0;" x1="495" x2="614.5" y1="801.4941" y2="801.4941"/><line style="stroke:#A80036;stroke-width:1.0;" x1="630.5" x2="672.5" y1="925.5127" y2="925.5127"/><line style="stroke:#A80036;stroke-width:1.0;" x1="672.5" x2="672.5" y1="925.5127" y2="938.5127"/><line style="stroke:#A80036;stroke-width:1.0;" x1="631.5" x2="672.5" y1="938.5127" y2="938.5127"/><polygon fill="#A80036" points="641.5,934.5127,631.5,938.5127,641.5,942.5127,637.5,938.5127" style="stroke:#A80036;stroke-width:1.0;"/><text fill="#000000" font-family="sans-serif" font-size="13" lengthAdjust="spacing" textLength="88" x="637.5" y="920.7705">Trade Capture</text><path d="M737,814.4941 L737,1031.4941 L930,1031.4941 L930,824.4941 L920,814.4941 L737,814.4941 " fill="#FBFB77" filter="url(#f12dsa7yfq1zm4)" style="stroke:#A80036;stroke-width:1.0;"/><path d="M920,814.4941 L920,824.4941 L930,824.4941 L920,814.4941 " fill="#FBFB77" style="stroke:#A80036;stroke-width:1.0;"/><text fill="#000000" font-family="sans-serif" font-size="13" lengthAdjust="spacing" textLength="172" x="743" y="832.0625">10:00 AM HKT 2020/10/06</text><line style="stroke:#A80036;stroke-width:1.0;" x1="738" x2="929" y1="834.8047" y2="834.8047"/><text fill="#000000" font-family="sans-serif" font-size="13" lengthAdjust="spacing" textLength="70" x="743" y="851.373">Stock: AAA</text><text fill="#000000" font-family="sans-serif" font-size="13" lengthAdjust="spacing" textLength="102" x="743" y="866.6836">Quantity: 10000</text><text fill="#000000" font-family="sans-serif" font-size="13" lengthAdjust="spacing" textLength="159" x="743" y="881.9941">Operation: Buy; Limit; Fill</text><text fill="#000000" font-family="sans-serif" font-size="13" lengthAdjust="spacing" textLength="154" x="743" y="897.3047">Trade Date: 2020/10/06</text><text fill="#000000" font-family="sans-serif" font-size="13" lengthAdjust="spacing" textLength="153" x="743" y="912.6152">Value Date: 2020/10/08</text><line style="stroke:#A80036;stroke-width:1.0;stroke-dasharray:1.0,2.0;" x1="738" x2="929" y1="919.3574" y2="919.3574"/><text fill="#000000" font-family="sans-serif" font-size="13" lengthAdjust="spacing" textLength="70" x="743" y="935.9258">Price: $998</text><text fill="#000000" font-family="sans-serif" font-size="13" lengthAdjust="spacing" textLength="158" x="743" y="951.2363">Trade Time: 3:00 PM HKT</text><text fill="#000000" font-family="sans-serif" font-size="13" lengthAdjust="spacing" textLength="126" x="743" y="966.5469">Counterparty: STO B</text><line style="stroke:#A80036;stroke-width:1.0;stroke-dasharray:1.0,2.0;" x1="738" x2="929" y1="973.2891" y2="973.2891"/><text fill="#000000" font-family="sans-serif" font-size="13" lengthAdjust="spacing" textLength="145" x="743" y="989.8574">Position A: +4000 AAA</text><text fill="#000000" font-family="sans-serif" font-size="13" lengthAdjust="spacing" textLength="143" x="743" y="1005.168">Position B: +6000 AAA</text><text fill="#000000" font-family="sans-serif" font-size="13" lengthAdjust="spacing" textLength="150" x="743" y="1020.4785">Trading Book: Book XXX</text><polygon fill="#A80036" points="747.5,1186.7051,757.5,1190.7051,747.5,1194.7051,751.5,1190.7051" style="stroke:#A80036;stroke-width:1.0;"/><line style="stroke:#A80036;stroke-width:1.0;" x1="630.5" x2="753.5" y1="1190.7051" y2="1190.7051"/><text fill="#000000" font-family="sans-serif" font-size="13" lengthAdjust="spacing" textLength="110" x="637.5" y="1185.9629">Trade Enrichment</text><path d="M774,1046.2207 L774,1317.2207 L1027,1317.2207 L1027,1056.2207 L1017,1046.2207 L774,1046.2207 " fill="#FBFB77" filter="url(#f12dsa7yfq1zm4)" style="stroke:#A80036;stroke-width:1.0;"/><path d="M1017,1046.2207 L1017,1056.2207 L1027,1056.2207 L1017,1046.2207 " fill="#FBFB77" style="stroke:#A80036;stroke-width:1.0;"/><text fill="#000000" font-family="sans-serif" font-size="13" lengthAdjust="spacing" textLength="172" x="780" y="1063.7891">10:00 AM HKT 2020/10/06</text><line style="stroke:#A80036;stroke-width:1.0;" x1="775" x2="1026" y1="1066.5313" y2="1066.5313"/><text fill="#000000" font-family="sans-serif" font-size="13" lengthAdjust="spacing" textLength="70" x="780" y="1083.0996">Stock: AAA</text><text fill="#000000" font-family="sans-serif" font-size="13" lengthAdjust="spacing" textLength="102" x="780" y="1098.4102">Quantity: 10000</text><text fill="#000000" font-family="sans-serif" font-size="13" lengthAdjust="spacing" textLength="159" x="780" y="1113.7207">Operation: Buy; Limit; Fill</text><text fill="#000000" font-family="sans-serif" font-size="13" lengthAdjust="spacing" textLength="154" x="780" y="1129.0313">Trade Date: 2020/10/06</text><text fill="#000000" font-family="sans-serif" font-size="13" lengthAdjust="spacing" textLength="153" x="780" y="1144.3418">Value Date: 2020/10/08</text><line style="stroke:#A80036;stroke-width:1.0;stroke-dasharray:1.0,2.0;" x1="775" x2="1026" y1="1151.084" y2="1151.084"/><text fill="#000000" font-family="sans-serif" font-size="13" lengthAdjust="spacing" textLength="70" x="780" y="1167.6523">Price: $998</text><text fill="#000000" font-family="sans-serif" font-size="13" lengthAdjust="spacing" textLength="158" x="780" y="1182.9629">Trade Time: 3:00 PM HKT</text><text fill="#000000" font-family="sans-serif" font-size="13" lengthAdjust="spacing" textLength="126" x="780" y="1198.2734">Counterparty: STO B</text><line style="stroke:#A80036;stroke-width:1.0;stroke-dasharray:1.0,2.0;" x1="775" x2="1026" y1="1205.0156" y2="1205.0156"/><text fill="#000000" font-family="sans-serif" font-size="13" lengthAdjust="spacing" textLength="145" x="780" y="1221.584">Position A: +4000 AAA</text><text fill="#000000" font-family="sans-serif" font-size="13" lengthAdjust="spacing" textLength="143" x="780" y="1236.8945">Position B: +6000 AAA</text><text fill="#000000" font-family="sans-serif" font-size="13" lengthAdjust="spacing" textLength="150" x="780" y="1252.2051">Trading Book: Book XXX</text><line style="stroke:#A80036;stroke-width:1.0;stroke-dasharray:1.0,2.0;" x1="775" x2="1026" y1="1258.9473" y2="1258.9473"/><text fill="#000000" font-family="sans-serif" font-size="13" lengthAdjust="spacing" textLength="232" x="780" y="1275.5156">Cash Value: 10000 * 998 * (1 + 0.1%)</text><text fill="#000000" font-family="sans-serif" font-size="13" lengthAdjust="spacing" textLength="181" x="780" y="1290.8262">Securities Settlement: CCASS</text><text fill="#000000" font-family="sans-serif" font-size="13" lengthAdjust="spacing" textLength="158" x="780" y="1306.1367">Money Settlement: HKICL</text><polygon fill="#A80036" points="641.5,1328.8789,631.5,1332.8789,641.5,1336.8789,637.5,1332.8789" style="stroke:#A80036;stroke-width:1.0;"/><line style="stroke:#A80036;stroke-width:1.0;stroke-dasharray:2.0,2.0;" x1="635.5" x2="763.5" y1="1332.8789" y2="1332.8789"/><line style="stroke:#A80036;stroke-width:1.0;" x1="630.5" x2="672.5" y1="1367.1895" y2="1367.1895"/><line style="stroke:#A80036;stroke-width:1.0;" x1="672.5" x2="672.5" y1="1367.1895" y2="1380.1895"/><line style="stroke:#A80036;stroke-width:1.0;" x1="625.5" x2="672.5" y1="1380.1895" y2="1380.1895"/><polygon fill="#A80036" points="635.5,1376.1895,625.5,1380.1895,635.5,1384.1895,631.5,1380.1895" style="stroke:#A80036;stroke-width:1.0;"/><text fill="#000000" font-family="sans-serif" font-size="13" lengthAdjust="spacing" textLength="102" x="637.5" y="1362.4473">Trade Validation</text><polygon fill="#A80036" points="641.5,1400.5,631.5,1404.5,641.5,1408.5,637.5,1404.5" style="stroke:#A80036;stroke-width:1.0;"/><line style="stroke:#A80036;stroke-width:1.0;" x1="635.5" x2="885" y1="1404.5" y2="1404.5"/><text fill="#000000" font-family="sans-serif" font-size="13" lengthAdjust="spacing" textLength="91" x="647.5" y="1399.7578">Get the Trades</text><polygon fill="#A80036" points="874,1414.5,884,1418.5,874,1422.5,878,1418.5" style="stroke:#A80036;stroke-width:1.0;"/><line style="stroke:#A80036;stroke-width:1.0;stroke-dasharray:2.0,2.0;" x1="625.5" x2="880" y1="1418.5" y2="1418.5"/><polygon fill="#A80036" points="1124.5,1443.8105,1134.5,1447.8105,1124.5,1451.8105,1128.5,1447.8105" style="stroke:#A80036;stroke-width:1.0;"/><line style="stroke:#A80036;stroke-width:1.0;" x1="896" x2="1130.5" y1="1447.8105" y2="1447.8105"/><text fill="#000000" font-family="sans-serif" font-size="13" lengthAdjust="spacing" textLength="122" x="903" y="1443.0684">Trade Confirmation</text><polygon fill="#A80036" points="902,1473.1211,892,1477.1211,902,1481.1211,898,1477.1211" style="stroke:#A80036;stroke-width:1.0;"/><line style="stroke:#A80036;stroke-width:1.0;stroke-dasharray:2.0,2.0;" x1="896" x2="1140.5" y1="1477.1211" y2="1477.1211"/><text fill="#000000" font-family="sans-serif" font-size="13" lengthAdjust="spacing" textLength="97" x="908" y="1472.3789">Trade Matching</text><polygon fill="#A80036" points="641.5,1502.4316,631.5,1506.4316,641.5,1510.4316,637.5,1506.4316" style="stroke:#A80036;stroke-width:1.0;"/><line style="stroke:#A80036;stroke-width:1.0;" x1="635.5" x2="1031.5" y1="1506.4316" y2="1506.4316"/><text fill="#000000" font-family="sans-serif" font-size="13" lengthAdjust="spacing" textLength="91" x="647.5" y="1501.6895">Get the Trades</text><polygon fill="#A80036" points="1020.5,1516.4316,1030.5,1520.4316,1020.5,1524.4316,1024.5,1520.4316" style="stroke:#A80036;stroke-width:1.0;"/><line style="stroke:#A80036;stroke-width:1.0;stroke-dasharray:2.0,2.0;" x1="625.5" x2="1026.5" y1="1520.4316" y2="1520.4316"/><polygon fill="#A80036" points="1195,1545.7422,1205,1549.7422,1195,1553.7422,1199,1549.7422" style="stroke:#A80036;stroke-width:1.0;"/><line style="stroke:#A80036;stroke-width:1.0;" x1="1042.5" x2="1201" y1="1549.7422" y2="1549.7422"/><text fill="#000000" font-family="sans-serif" font-size="13" lengthAdjust="spacing" textLength="100" x="1049.5" y="1545">Trade Reporting</text><polygon fill="#A80036" points="1048.5,1559.7422,1038.5,1563.7422,1048.5,1567.7422,1044.5,1563.7422" style="stroke:#A80036;stroke-width:1.0;"/><line style="stroke:#A80036;stroke-width:1.0;stroke-dasharray:2.0,2.0;" x1="1042.5" x2="1211" y1="1563.7422" y2="1563.7422"/><polygon fill="#A80036" points="1268.5,1589.0527,1278.5,1593.0527,1268.5,1597.0527,1272.5,1593.0527" style="stroke:#A80036;stroke-width:1.0;"/><line style="stroke:#A80036;stroke-width:1.0;" x1="891" x2="1274.5" y1="1593.0527" y2="1593.0527"/><text fill="#000000" font-family="sans-serif" font-size="13" lengthAdjust="spacing" textLength="205" x="898" y="1588.3105">Securities Settlement Instruction</text><polygon fill="#A80036" points="1426,1603.0527,1436,1607.0527,1426,1611.0527,1430,1607.0527" style="stroke:#A80036;stroke-width:1.0;"/><line style="stroke:#A80036;stroke-width:1.0;" x1="1290.5" x2="1432" y1="1607.0527" y2="1607.0527"/><polygon fill="#A80036" points="1301.5,1617.0527,1291.5,1621.0527,1301.5,1625.0527,1297.5,1621.0527" style="stroke:#A80036;stroke-width:1.0;"/><line style="stroke:#A80036;stroke-width:1.0;stroke-dasharray:2.0,2.0;" x1="1295.5" x2="1442" y1="1621.0527" y2="1621.0527"/><polygon fill="#A80036" points="902,1631.0527,892,1635.0527,902,1639.0527,898,1635.0527" style="stroke:#A80036;stroke-width:1.0;"/><line style="stroke:#A80036;stroke-width:1.0;stroke-dasharray:2.0,2.0;" x1="896" x2="1284.5" y1="1635.0527" y2="1635.0527"/><polygon fill="#A80036" points="1339.5,1660.3633,1349.5,1664.3633,1339.5,1668.3633,1343.5,1664.3633" style="stroke:#A80036;stroke-width:1.0;"/><line style="stroke:#A80036;stroke-width:1.0;" x1="891" x2="1345.5" y1="1664.3633" y2="1664.3633"/><text fill="#000000" font-family="sans-serif" font-size="13" lengthAdjust="spacing" textLength="185" x="898" y="1659.6211">Money Settlement Instruction</text><polygon fill="#A80036" points="1426,1674.3633,1436,1678.3633,1426,1682.3633,1430,1678.3633" style="stroke:#A80036;stroke-width:1.0;"/><line style="stroke:#A80036;stroke-width:1.0;" x1="1361.5" x2="1432" y1="1678.3633" y2="1678.3633"/><polygon fill="#A80036" points="1372.5,1688.3633,1362.5,1692.3633,1372.5,1696.3633,1368.5,1692.3633" style="stroke:#A80036;stroke-width:1.0;"/><line style="stroke:#A80036;stroke-width:1.0;stroke-dasharray:2.0,2.0;" x1="1366.5" x2="1442" y1="1692.3633" y2="1692.3633"/><polygon fill="#A80036" points="902,1737.9844,892,1741.9844,902,1745.9844,898,1741.9844" style="stroke:#A80036;stroke-width:1.0;"/><line style="stroke:#A80036;stroke-width:1.0;stroke-dasharray:2.0,2.0;" x1="896" x2="1355.5" y1="1741.9844" y2="1741.9844"/><path d="M445,1705.3633 L445,1776.3633 L882,1776.3633 L882,1715.3633 L872,1705.3633 L445,1705.3633 " fill="#FBFB77" filter="url(#f12dsa7yfq1zm4)" style="stroke:#A80036;stroke-width:1.0;"/><path d="M872,1705.3633 L872,1715.3633 L882,1715.3633 L872,1705.3633 " fill="#FBFB77" style="stroke:#A80036;stroke-width:1.0;"/><text fill="#000000" font-family="sans-serif" font-size="13" lengthAdjust="spacing" textLength="223" x="451" y="1722.9316">The settlement instruction can also</text><text fill="#000000" font-family="sans-serif" font-size="13" lengthAdjust="spacing" textLength="416" x="451" y="1738.2422">be forwarded the custodians from the STOs respectively if the two</text><text fill="#000000" font-family="sans-serif" font-size="13" lengthAdjust="spacing" textLength="255" x="451" y="1753.5527">counterparties execute the trade directly</text><text fill="#000000" font-family="sans-serif" font-size="13" lengthAdjust="spacing" textLength="211" x="451" y="1768.8633">without the involvement of HKEX.</text><!--MD5=[d66dee48ba0617540c542d0bbac59ca9]
@startuml

Actor Client

box Front Office
Actor Sales
Actor Trader
participant "Trading System"
end box
box Middle Office
participant "Trade Capture"
participant "Static Data"
end box
box Back Office
participant "Settlement System"
participant "Trade Reporting"
end box
participant "STO B"
participant "HKSFC"
participant CCASS
participant HKICL
participant Custodians

Client -> Sales: Order Placement
activate Sales
Sales -> Sales: Record the Order
note right
10:00 AM HKT 2020/10/05
- - -
Stock: AAA
Price: $1000
Quantity: 10000
Operation: Buy; Limit; Fill
Trade Date: 2020/10/06
Value Date: 2020/10/08
Others: 4000 to A account and
           6000 to B account
end note

Sales -> Trader: Forwarding
deactivate Sales
activate Trader
Trader -> Trader: Order Accessment
Trader - -> Sales: Response: OK
deactivate Trader
activate Sales
Sales - -> Client: OK
deactivate Sales

activate Trader
Trader -> Trader
Trader -> "Trading System": Trade Execution and Capture
activate "Trading System"
"Trading System" -> "STO B": Trade Execution
activate "STO B"
"STO B" - -> "Trading System"
note right
It could be Exchanges, other STOs or
Institute Investors.
end note
deactivate "STO B"
"Trading System" -> "Trading System": Trade Capture
note right
10:00 AM HKT 2020/10/06
- - -
Stock: AAA
Quantity: 10000
Operation: Buy; Limit; Fill
Trade Date: 2020/10/06
Value Date: 2020/10/08
....
Price: $998
Trade Time: 3:00 PM HKT
Counterparty: STO B
end note
"Trading System" - -> Trader: OK
deactivate Trader
"Trading System" -> "Trade Capture"
deactivate "Trading System"

activate "Trade Capture"
"Trade Capture" -> "Trade Capture": Trade Capture
note right
10:00 AM HKT 2020/10/06
- - -
Stock: AAA
Quantity: 10000
Operation: Buy; Limit; Fill
Trade Date: 2020/10/06
Value Date: 2020/10/08
....
Price: $998
Trade Time: 3:00 PM HKT
Counterparty: STO B
....
Position A: +4000 AAA
Position B: +6000 AAA
Trading Book: Book XXX
end note
"Trade Capture" -> "Static Data": Trade Enrichment
note right
10:00 AM HKT 2020/10/06
- - -
Stock: AAA
Quantity: 10000
Operation: Buy; Limit; Fill
Trade Date: 2020/10/06
Value Date: 2020/10/08
....
Price: $998
Trade Time: 3:00 PM HKT
Counterparty: STO B
....
Position A: +4000 AAA
Position B: +6000 AAA
Trading Book: Book XXX
....
Cash Value: 10000 * 998 * (1 + 0.1%)
Securities Settlement: CCASS
Money Settlement: HKICL
end note
activate "Static Data"
"Static Data" - -> "Trade Capture"
deactivate "Static Data"
"Trade Capture" -> "Trade Capture": Trade Validation
deactivate "Trade Capture"

"Settlement System" -> "Trade Capture": Get the Trades
activate "Settlement System"
activate "Trade Capture"
"Trade Capture" - -> "Settlement System"
deactivate "Trade Capture"
"Settlement System" -> "STO B": Trade Confirmation
activate "STO B"
"STO B" - -> "Settlement System": Trade Matching
deactivate "STO B"
deactivate "Settlement System"

"Trade Reporting" -> "Trade Capture": Get the Trades
activate "Trade Reporting"
activate "Trade Capture"
"Trade Capture" - -> "Trade Reporting"
deactivate "Trade Capture"
"Trade Reporting" -> "HKSFC": Trade Reporting
activate HKSFC
HKSFC - -> "Trade Reporting"
deactivate HKSFC
deactivate "Trade Reporting"

"Settlement System" -> CCASS: Securities Settlement Instruction
activate CCASS
CCASS -> Custodians
activate Custodians
Custodians - -> CCASS
deactivate Custodians
CCASS - -> "Settlement System"
deactivate CCASS
"Settlement System" -> HKICL: Money Settlement Instruction
activate HKICL
HKICL -> Custodians
activate Custodians
Custodians - -> HKICL
deactivate Custodians
HKICL - -> "Settlement System"
deactivate HKICL
note bottom
The settlement instruction can also
be forwarded the custodians from the STOs respectively if the two
counterparties execute the trade directly 
without the involvement of HKEX.
end note



@enduml

PlantUML version 1.2021.7(Sun May 23 20:40:07 HKT 2021)
(GPL source distribution)
Java Runtime: OpenJDK Runtime Environment
JVM: OpenJDK 64-Bit Server VM
Default Encoding: UTF-8
Language: en
Country: GB
--></g></svg>