<?xml version="1.0" encoding="UTF-8" standalone="no"?><svg xmlns="http://www.w3.org/2000/svg" xmlns:xlink="http://www.w3.org/1999/xlink" contentScriptType="application/ecmascript" contentStyleType="text/css" height="3416px" preserveAspectRatio="none" style="width:1466px;height:3416px;" version="1.1" viewBox="0 0 1466 3416" width="1466px" zoomAndPan="magnify"><defs><filter height="300%" id="fxn5ga8g4fwit" width="300%" x="-1" y="-1"><feGaussianBlur result="blurOut" stdDeviation="2.0"/><feColorMatrix in="blurOut" result="blurOut2" type="matrix" values="0 0 0 0 0 0 0 0 0 0 0 0 0 0 0 0 0 0 .4 0"/><feOffset dx="4.0" dy="4.0" in="blurOut2" result="blurOut3"/><feBlend in="SourceGraphic" in2="blurOut3" mode="normal"/></filter></defs><g><rect fill="#FEFECE" filter="url(#fxn5ga8g4fwit)" height="36.2969" rx="12.5" ry="12.5" style="stroke: #A80036; stroke-width: 1.5;" width="180" x="10" y="1694.832"/><text fill="#000000" font-family="sans-serif" font-size="14" lengthAdjust="spacingAndGlyphs" textLength="160" x="20" y="1717.8271">Design Documentation</text><rect fill="#FEFECE" filter="url(#fxn5ga8g4fwit)" height="36.2969" rx="12.5" ry="12.5" style="stroke: #A80036; stroke-width: 1.5;" width="103" x="240" y="48.1484"/><text fill="#000000" font-family="sans-serif" font-size="14" lengthAdjust="spacingAndGlyphs" textLength="83" x="250" y="71.1436">Introduction</text><rect fill="#FEFECE" filter="url(#fxn5ga8g4fwit)" height="36.2969" rx="12.5" ry="12.5" style="stroke: #A80036; stroke-width: 1.5;" width="104" x="393" y="20"/><text fill="#000000" font-family="sans-serif" font-size="14" lengthAdjust="spacingAndGlyphs" textLength="84" x="403" y="42.9951">Background</text><path d="M343,66.2969 L353,66.2969 C368,66.2969 368,38.1484 383,38.1484 L393,38.1484 " fill="none" style="stroke: #A80036; stroke-width: 1.0;"/><rect fill="#FEFECE" filter="url(#fxn5ga8g4fwit)" height="36.2969" rx="12.5" ry="12.5" style="stroke: #A80036; stroke-width: 1.5;" width="64" x="393" y="76.2969"/><text fill="#000000" font-family="sans-serif" font-size="14" lengthAdjust="spacingAndGlyphs" textLength="44" x="403" y="99.292">Scope</text><path d="M343,66.2969 L353,66.2969 C368,66.2969 368,94.4453 383,94.4453 L393,94.4453 " fill="none" style="stroke: #A80036; stroke-width: 1.0;"/><path d="M190,1712.9805 L200,1712.9805 C215,1712.9805 215,66.2969 230,66.2969 L240,66.2969 " fill="none" style="stroke: #A80036; stroke-width: 1.0;"/><rect fill="#FEFECE" filter="url(#fxn5ga8g4fwit)" height="36.2969" rx="12.5" ry="12.5" style="stroke: #A80036; stroke-width: 1.5;" width="142" x="240" y="1582.2383"/><text fill="#000000" font-family="sans-serif" font-size="14" lengthAdjust="spacingAndGlyphs" textLength="122" x="250" y="1605.2334">Solution Overview</text><rect fill="#FEFECE" filter="url(#fxn5ga8g4fwit)" height="36.2969" rx="12.5" ry="12.5" style="stroke: #A80036; stroke-width: 1.5;" width="118" x="432" y="188.8906"/><text fill="#000000" font-family="sans-serif" font-size="14" lengthAdjust="spacingAndGlyphs" textLength="98" x="442" y="211.8857">Requirements</text><rect fill="#FEFECE" filter="url(#fxn5ga8g4fwit)" height="36.2969" rx="12.5" ry="12.5" style="stroke: #A80036; stroke-width: 1.5;" width="193" x="600" y="132.5938"/><text fill="#000000" font-family="sans-serif" font-size="14" lengthAdjust="spacingAndGlyphs" textLength="173" x="610" y="155.5889">Functional Requirements</text><path d="M550,207.0391 L560,207.0391 C575,207.0391 575,150.7422 590,150.7422 L600,150.7422 " fill="none" style="stroke: #A80036; stroke-width: 1.0;"/><rect fill="#FEFECE" filter="url(#fxn5ga8g4fwit)" height="36.2969" rx="12.5" ry="12.5" style="stroke: #A80036; stroke-width: 1.5;" width="222" x="600" y="188.8906"/><text fill="#000000" font-family="sans-serif" font-size="14" lengthAdjust="spacingAndGlyphs" textLength="202" x="610" y="211.8857">Non-functional Requirements</text><rect fill="#FEFECE" filter="url(#fxn5ga8g4fwit)" height="36.2969" rx="12.5" ry="12.5" style="stroke: #A80036; stroke-width: 1.5;" width="191" x="872" y="132.5938"/><text fill="#000000" font-family="sans-serif" font-size="14" lengthAdjust="spacingAndGlyphs" textLength="171" x="882" y="155.5889">Logging and Data Insight</text><path d="M822,207.0391 L832,207.0391 C847,207.0391 847,150.7422 862,150.7422 L872,150.7422 " fill="none" style="stroke: #A80036; stroke-width: 1.0;"/><rect fill="#FEFECE" filter="url(#fxn5ga8g4fwit)" height="36.2969" rx="12.5" ry="12.5" style="stroke: #A80036; stroke-width: 1.5;" width="93" x="872" y="188.8906"/><text fill="#000000" font-family="sans-serif" font-size="14" lengthAdjust="spacingAndGlyphs" textLength="73" x="882" y="211.8857">Monitoring</text><path d="M822,207.0391 L832,207.0391 C847,207.0391 847,207.0391 862,207.0391 L872,207.0391 " fill="none" style="stroke: #A80036; stroke-width: 1.0;"/><rect fill="#FEFECE" filter="url(#fxn5ga8g4fwit)" height="36.2969" rx="12.5" ry="12.5" style="stroke: #A80036; stroke-width: 1.5;" width="95" x="872" y="245.1875"/><text fill="#000000" font-family="sans-serif" font-size="14" lengthAdjust="spacingAndGlyphs" textLength="75" x="882" y="268.1826">Audit Trails</text><path d="M822,207.0391 L832,207.0391 C847,207.0391 847,263.3359 862,263.3359 L872,263.3359 " fill="none" style="stroke: #A80036; stroke-width: 1.0;"/><path d="M550,207.0391 L560,207.0391 C575,207.0391 575,207.0391 590,207.0391 L600,207.0391 " fill="none" style="stroke: #A80036; stroke-width: 1.0;"/><path d="M382,1600.3867 L392,1600.3867 C407,1600.3867 407,207.0391 422,207.0391 L432,207.0391 " fill="none" style="stroke: #A80036; stroke-width: 1.0;"/><rect fill="#FEFECE" filter="url(#fxn5ga8g4fwit)" height="52.5938" rx="12.5" ry="12.5" style="stroke: #A80036; stroke-width: 1.5;" width="265" x="432" y="462.2266"/><text fill="#000000" font-family="sans-serif" font-size="14" lengthAdjust="spacingAndGlyphs" textLength="107" x="442" y="485.2217">Solution Details</text><text fill="#000000" font-family="sans-serif" font-size="14" lengthAdjust="spacingAndGlyphs" textLength="245" x="442" y="501.5186">to resolve Functional Requirements</text><rect fill="#FEFECE" filter="url(#fxn5ga8g4fwit)" height="36.2969" rx="12.5" ry="12.5" style="stroke: #A80036; stroke-width: 1.5;" width="171" x="747" y="301.4844"/><text fill="#000000" font-family="sans-serif" font-size="14" lengthAdjust="spacingAndGlyphs" textLength="151" x="757" y="324.4795">Components Diagram</text><path d="M697,488.5234 L707,488.5234 C722,488.5234 722,319.6328 737,319.6328 L747,319.6328 " fill="none" style="stroke: #A80036; stroke-width: 1.0;"/><rect fill="#FEFECE" filter="url(#fxn5ga8g4fwit)" height="36.2969" rx="12.5" ry="12.5" style="stroke: #A80036; stroke-width: 1.5;" width="92" x="747" y="357.7813"/><text fill="#000000" font-family="sans-serif" font-size="14" lengthAdjust="spacingAndGlyphs" textLength="72" x="757" y="380.7764">Flow Chart</text><path d="M697,488.5234 L707,488.5234 C722,488.5234 722,375.9297 737,375.9297 L747,375.9297 " fill="none" style="stroke: #A80036; stroke-width: 1.0;"/><rect fill="#FEFECE" filter="url(#fxn5ga8g4fwit)" height="36.2969" rx="12.5" ry="12.5" style="stroke: #A80036; stroke-width: 1.5;" width="152" x="747" y="414.0781"/><text fill="#000000" font-family="sans-serif" font-size="14" lengthAdjust="spacingAndGlyphs" textLength="132" x="757" y="437.0732">Sequence Diagram</text><path d="M697,488.5234 L707,488.5234 C722,488.5234 722,432.2266 737,432.2266 L747,432.2266 " fill="none" style="stroke: #A80036; stroke-width: 1.0;"/><rect fill="#FEFECE" filter="url(#fxn5ga8g4fwit)" height="36.2969" rx="12.5" ry="12.5" style="stroke: #A80036; stroke-width: 1.5;" width="126" x="747" y="554.8203"/><text fill="#000000" font-family="sans-serif" font-size="14" lengthAdjust="spacingAndGlyphs" textLength="106" x="757" y="577.8154">API Documents</text><rect fill="#FEFECE" filter="url(#fxn5ga8g4fwit)" height="36.2969" rx="12.5" ry="12.5" style="stroke: #A80036; stroke-width: 1.5;" width="133" x="923" y="498.5234"/><text fill="#000000" font-family="sans-serif" font-size="14" lengthAdjust="spacingAndGlyphs" textLength="113" x="933" y="521.5186">Interface Design</text><rect fill="#FEFECE" filter="url(#fxn5ga8g4fwit)" height="36.2969" rx="12.5" ry="12.5" style="stroke: #A80036; stroke-width: 1.5;" width="140" x="1106" y="470.375"/><text fill="#000000" font-family="sans-serif" font-size="14" lengthAdjust="spacingAndGlyphs" textLength="120" x="1116" y="493.3701">Params Definition</text><path d="M1056,516.6719 L1066,516.6719 C1081,516.6719 1081,488.5234 1096,488.5234 L1106,488.5234 " fill="none" style="stroke: #A80036; stroke-width: 1.0;"/><rect fill="#FEFECE" filter="url(#fxn5ga8g4fwit)" height="36.2969" rx="12.5" ry="12.5" style="stroke: #A80036; stroke-width: 1.5;" width="49" x="1106" y="526.6719"/><text fill="#000000" font-family="sans-serif" font-size="14" lengthAdjust="spacingAndGlyphs" textLength="29" x="1116" y="549.667">UML</text><path d="M1056,516.6719 L1066,516.6719 C1081,516.6719 1081,544.8203 1096,544.8203 L1106,544.8203 " fill="none" style="stroke: #A80036; stroke-width: 1.0;"/><path d="M873,572.9688 L883,572.9688 C898,572.9688 898,516.6719 913,516.6719 L923,516.6719 " fill="none" style="stroke: #A80036; stroke-width: 1.0;"/><rect fill="#FEFECE" filter="url(#fxn5ga8g4fwit)" height="36.2969" rx="12.5" ry="12.5" style="stroke: #A80036; stroke-width: 1.5;" width="122" x="923" y="611.1172"/><text fill="#000000" font-family="sans-serif" font-size="14" lengthAdjust="spacingAndGlyphs" textLength="102" x="933" y="634.1123">Data Validation</text><rect fill="#FEFECE" filter="url(#fxn5ga8g4fwit)" height="36.2969" rx="12.5" ry="12.5" style="stroke: #A80036; stroke-width: 1.5;" width="55" x="1095" y="582.9688"/><text fill="#000000" font-family="sans-serif" font-size="14" lengthAdjust="spacingAndGlyphs" textLength="35" x="1105" y="605.9639">Input</text><path d="M1045,629.2656 L1055,629.2656 C1070,629.2656 1070,601.1172 1085,601.1172 L1095,601.1172 " fill="none" style="stroke: #A80036; stroke-width: 1.0;"/><rect fill="#FEFECE" filter="url(#fxn5ga8g4fwit)" height="36.2969" rx="12.5" ry="12.5" style="stroke: #A80036; stroke-width: 1.5;" width="68" x="1095" y="639.2656"/><text fill="#000000" font-family="sans-serif" font-size="14" lengthAdjust="spacingAndGlyphs" textLength="48" x="1105" y="662.2607">Output</text><path d="M1045,629.2656 L1055,629.2656 C1070,629.2656 1070,657.4141 1085,657.4141 L1095,657.4141 " fill="none" style="stroke: #A80036; stroke-width: 1.0;"/><path d="M873,572.9688 L883,572.9688 C898,572.9688 898,629.2656 913,629.2656 L923,629.2656 " fill="none" style="stroke: #A80036; stroke-width: 1.0;"/><path d="M697,488.5234 L707,488.5234 C722,488.5234 722,572.9688 737,572.9688 L747,572.9688 " fill="none" style="stroke: #A80036; stroke-width: 1.0;"/><path d="M382,1600.3867 L392,1600.3867 C407,1600.3867 407,488.5234 422,488.5234 L432,488.5234 " fill="none" style="stroke: #A80036; stroke-width: 1.0;"/><rect fill="#FEFECE" filter="url(#fxn5ga8g4fwit)" height="52.5938" rx="12.5" ry="12.5" style="stroke: #A80036; stroke-width: 1.5;" width="294" x="432" y="1855.5742"/><text fill="#000000" font-family="sans-serif" font-size="14" lengthAdjust="spacingAndGlyphs" textLength="137" x="442" y="1878.5693">Architecture Design</text><text fill="#000000" font-family="sans-serif" font-size="14" lengthAdjust="spacingAndGlyphs" textLength="274" x="442" y="1894.8662">to resolve Non-functional Requirements</text><rect fill="#FEFECE" filter="url(#fxn5ga8g4fwit)" height="36.2969" rx="12.5" ry="12.5" style="stroke: #A80036; stroke-width: 1.5;" width="128" x="776" y="1286.6797"/><text fill="#000000" font-family="sans-serif" font-size="14" lengthAdjust="spacingAndGlyphs" textLength="108" x="786" y="1309.6748">Security Design</text><rect fill="#FEFECE" filter="url(#fxn5ga8g4fwit)" height="36.2969" rx="12.5" ry="12.5" style="stroke: #A80036; stroke-width: 1.5;" width="145" x="954" y="695.5625"/><text fill="#000000" font-family="sans-serif" font-size="14" lengthAdjust="spacingAndGlyphs" textLength="125" x="964" y="718.5576">Data Classification</text><path d="M904,1304.8281 L914,1304.8281 C929,1304.8281 929,713.7109 944,713.7109 L954,713.7109 " fill="none" style="stroke: #A80036; stroke-width: 1.0;"/><rect fill="#FEFECE" filter="url(#fxn5ga8g4fwit)" height="36.2969" rx="12.5" ry="12.5" style="stroke: #A80036; stroke-width: 1.5;" width="124" x="954" y="751.8594"/><text fill="#000000" font-family="sans-serif" font-size="14" lengthAdjust="spacingAndGlyphs" textLength="104" x="964" y="774.8545">Data Retention</text><path d="M904,1304.8281 L914,1304.8281 C929,1304.8281 929,770.0078 944,770.0078 L954,770.0078 " fill="none" style="stroke: #A80036; stroke-width: 1.0;"/><rect fill="#FEFECE" filter="url(#fxn5ga8g4fwit)" height="36.2969" rx="12.5" ry="12.5" style="stroke: #A80036; stroke-width: 1.5;" width="219" x="954" y="808.1563"/><text fill="#000000" font-family="sans-serif" font-size="14" lengthAdjust="spacingAndGlyphs" textLength="199" x="964" y="831.1514">Access Control Management</text><rect fill="#FEFECE" filter="url(#fxn5ga8g4fwit)" height="36.2969" rx="12.5" ry="12.5" style="stroke: #A80036; stroke-width: 1.5;" width="120" x="1223" y="751.8594"/><text fill="#000000" font-family="sans-serif" font-size="14" lengthAdjust="spacingAndGlyphs" textLength="100" x="1233" y="774.8545">Authentication</text><path d="M1173,826.3047 L1183,826.3047 C1198,826.3047 1198,770.0078 1213,770.0078 L1223,770.0078 " fill="none" style="stroke: #A80036; stroke-width: 1.0;"/><rect fill="#FEFECE" filter="url(#fxn5ga8g4fwit)" height="36.2969" rx="12.5" ry="12.5" style="stroke: #A80036; stroke-width: 1.5;" width="111" x="1223" y="808.1563"/><text fill="#000000" font-family="sans-serif" font-size="14" lengthAdjust="spacingAndGlyphs" textLength="91" x="1233" y="831.1514">Authorization</text><path d="M1173,826.3047 L1183,826.3047 C1198,826.3047 1198,826.3047 1213,826.3047 L1223,826.3047 " fill="none" style="stroke: #A80036; stroke-width: 1.0;"/><rect fill="#FEFECE" filter="url(#fxn5ga8g4fwit)" height="36.2969" rx="12.5" ry="12.5" style="stroke: #A80036; stroke-width: 1.5;" width="115" x="1223" y="864.4531"/><text fill="#000000" font-family="sans-serif" font-size="14" lengthAdjust="spacingAndGlyphs" textLength="95" x="1233" y="887.4482">Accountability</text><path d="M1173,826.3047 L1183,826.3047 C1198,826.3047 1198,882.6016 1213,882.6016 L1223,882.6016 " fill="none" style="stroke: #A80036; stroke-width: 1.0;"/><path d="M904,1304.8281 L914,1304.8281 C929,1304.8281 929,826.3047 944,826.3047 L954,826.3047 " fill="none" style="stroke: #A80036; stroke-width: 1.0;"/><rect fill="#FEFECE" filter="url(#fxn5ga8g4fwit)" height="36.2969" rx="12.5" ry="12.5" style="stroke: #A80036; stroke-width: 1.5;" width="199" x="954" y="948.8984"/><text fill="#000000" font-family="sans-serif" font-size="14" lengthAdjust="spacingAndGlyphs" textLength="179" x="964" y="971.8936">Cryptographic Mechanism</text><rect fill="#FEFECE" filter="url(#fxn5ga8g4fwit)" height="36.2969" rx="12.5" ry="12.5" style="stroke: #A80036; stroke-width: 1.5;" width="147" x="1203" y="920.75"/><text fill="#000000" font-family="sans-serif" font-size="14" lengthAdjust="spacingAndGlyphs" textLength="127" x="1213" y="943.7451">Encryption Control</text><path d="M1153,967.0469 L1163,967.0469 C1178,967.0469 1178,938.8984 1193,938.8984 L1203,938.8984 " fill="none" style="stroke: #A80036; stroke-width: 1.0;"/><rect fill="#FEFECE" filter="url(#fxn5ga8g4fwit)" height="36.2969" rx="12.5" ry="12.5" style="stroke: #A80036; stroke-width: 1.5;" width="237" x="1203" y="977.0469"/><text fill="#000000" font-family="sans-serif" font-size="14" lengthAdjust="spacingAndGlyphs" textLength="217" x="1213" y="1000.042">Cryptographic Integrity Controls</text><path d="M1153,967.0469 L1163,967.0469 C1178,967.0469 1178,995.1953 1193,995.1953 L1203,995.1953 " fill="none" style="stroke: #A80036; stroke-width: 1.0;"/><path d="M904,1304.8281 L914,1304.8281 C929,1304.8281 929,967.0469 944,967.0469 L954,967.0469 " fill="none" style="stroke: #A80036; stroke-width: 1.0;"/><rect fill="#FEFECE" filter="url(#fxn5ga8g4fwit)" height="36.2969" rx="12.5" ry="12.5" style="stroke: #A80036; stroke-width: 1.5;" width="155" x="954" y="1033.3438"/><text fill="#000000" font-family="sans-serif" font-size="14" lengthAdjust="spacingAndGlyphs" textLength="135" x="964" y="1056.3389">Information Storage</text><rect fill="#FEFECE" filter="url(#fxn5ga8g4fwit)" height="36.2969" rx="12.5" ry="12.5" style="stroke: #A80036; stroke-width: 1.5;" width="100" x="1159" y="1033.3438"/><text fill="#000000" font-family="sans-serif" font-size="14" lengthAdjust="spacingAndGlyphs" textLength="80" x="1169" y="1056.3389">Critical Files</text><path d="M1109,1051.4922 L1119,1051.4922 C1134,1051.4922 1134,1051.4922 1149,1051.4922 L1159,1051.4922 " fill="none" style="stroke: #A80036; stroke-width: 1.0;"/><path d="M904,1304.8281 L914,1304.8281 C929,1304.8281 929,1051.4922 944,1051.4922 L954,1051.4922 " fill="none" style="stroke: #A80036; stroke-width: 1.0;"/><rect fill="#FEFECE" filter="url(#fxn5ga8g4fwit)" height="36.2969" rx="12.5" ry="12.5" style="stroke: #A80036; stroke-width: 1.5;" width="136" x="954" y="1202.2344"/><text fill="#000000" font-family="sans-serif" font-size="14" lengthAdjust="spacingAndGlyphs" textLength="116" x="964" y="1225.2295">Network Security</text><rect fill="#FEFECE" filter="url(#fxn5ga8g4fwit)" height="36.2969" rx="12.5" ry="12.5" style="stroke: #A80036; stroke-width: 1.5;" width="201" x="1140" y="1089.6406"/><text fill="#000000" font-family="sans-serif" font-size="14" lengthAdjust="spacingAndGlyphs" textLength="181" x="1150" y="1112.6357">Application Gateway Rules</text><path d="M1090,1220.3828 L1100,1220.3828 C1115,1220.3828 1115,1107.7891 1130,1107.7891 L1140,1107.7891 " fill="none" style="stroke: #A80036; stroke-width: 1.0;"/><rect fill="#FEFECE" filter="url(#fxn5ga8g4fwit)" height="36.2969" rx="12.5" ry="12.5" style="stroke: #A80036; stroke-width: 1.5;" width="179" x="1140" y="1145.9375"/><text fill="#000000" font-family="sans-serif" font-size="14" lengthAdjust="spacingAndGlyphs" textLength="159" x="1150" y="1168.9326">API Management Rules</text><path d="M1090,1220.3828 L1100,1220.3828 C1115,1220.3828 1115,1164.0859 1130,1164.0859 L1140,1164.0859 " fill="none" style="stroke: #A80036; stroke-width: 1.0;"/><rect fill="#FEFECE" filter="url(#fxn5ga8g4fwit)" height="36.2969" rx="12.5" ry="12.5" style="stroke: #A80036; stroke-width: 1.5;" width="132" x="1140" y="1202.2344"/><text fill="#000000" font-family="sans-serif" font-size="14" lengthAdjust="spacingAndGlyphs" textLength="112" x="1150" y="1225.2295">VNET Protection</text><path d="M1090,1220.3828 L1100,1220.3828 C1115,1220.3828 1115,1220.3828 1130,1220.3828 L1140,1220.3828 " fill="none" style="stroke: #A80036; stroke-width: 1.0;"/><rect fill="#FEFECE" filter="url(#fxn5ga8g4fwit)" height="36.2969" rx="12.5" ry="12.5" style="stroke: #A80036; stroke-width: 1.5;" width="71" x="1140" y="1258.5313"/><text fill="#000000" font-family="sans-serif" font-size="14" lengthAdjust="spacingAndGlyphs" textLength="51" x="1150" y="1281.5264">Ingress</text><path d="M1090,1220.3828 L1100,1220.3828 C1115,1220.3828 1115,1276.6797 1130,1276.6797 L1140,1276.6797 " fill="none" style="stroke: #A80036; stroke-width: 1.0;"/><rect fill="#FEFECE" filter="url(#fxn5ga8g4fwit)" height="36.2969" rx="12.5" ry="12.5" style="stroke: #A80036; stroke-width: 1.5;" width="68" x="1140" y="1314.8281"/><text fill="#000000" font-family="sans-serif" font-size="14" lengthAdjust="spacingAndGlyphs" textLength="48" x="1150" y="1337.8232">Egress</text><path d="M1090,1220.3828 L1100,1220.3828 C1115,1220.3828 1115,1332.9766 1130,1332.9766 L1140,1332.9766 " fill="none" style="stroke: #A80036; stroke-width: 1.0;"/><path d="M904,1304.8281 L914,1304.8281 C929,1304.8281 929,1220.3828 944,1220.3828 L954,1220.3828 " fill="none" style="stroke: #A80036; stroke-width: 1.0;"/><rect fill="#FEFECE" filter="url(#fxn5ga8g4fwit)" height="36.2969" rx="12.5" ry="12.5" style="stroke: #A80036; stroke-width: 1.5;" width="242" x="954" y="1371.125"/><text fill="#000000" font-family="sans-serif" font-size="14" lengthAdjust="spacingAndGlyphs" textLength="222" x="964" y="1394.1201">Web Application Security Design</text><path d="M904,1304.8281 L914,1304.8281 C929,1304.8281 929,1389.2734 944,1389.2734 L954,1389.2734 " fill="none" style="stroke: #A80036; stroke-width: 1.0;"/><rect fill="#FEFECE" filter="url(#fxn5ga8g4fwit)" height="36.2969" rx="12.5" ry="12.5" style="stroke: #A80036; stroke-width: 1.5;" width="95" x="954" y="1455.5703"/><text fill="#000000" font-family="sans-serif" font-size="14" lengthAdjust="spacingAndGlyphs" textLength="75" x="964" y="1478.5654">Code Scan</text><rect fill="#FEFECE" filter="url(#fxn5ga8g4fwit)" height="36.2969" rx="12.5" ry="12.5" style="stroke: #A80036; stroke-width: 1.5;" width="158" x="1099" y="1427.4219"/><text fill="#000000" font-family="sans-serif" font-size="14" lengthAdjust="spacingAndGlyphs" textLength="138" x="1109" y="1450.417">Static Code Analysis</text><path d="M1049,1473.7188 L1059,1473.7188 C1074,1473.7188 1074,1445.5703 1089,1445.5703 L1099,1445.5703 " fill="none" style="stroke: #A80036; stroke-width: 1.0;"/><rect fill="#FEFECE" filter="url(#fxn5ga8g4fwit)" height="36.2969" rx="12.5" ry="12.5" style="stroke: #A80036; stroke-width: 1.5;" width="179" x="1099" y="1483.7188"/><text fill="#000000" font-family="sans-serif" font-size="14" lengthAdjust="spacingAndGlyphs" textLength="159" x="1109" y="1506.7139">Dynamic Code Analysis</text><path d="M1049,1473.7188 L1059,1473.7188 C1074,1473.7188 1074,1501.8672 1089,1501.8672 L1099,1501.8672 " fill="none" style="stroke: #A80036; stroke-width: 1.0;"/><path d="M904,1304.8281 L914,1304.8281 C929,1304.8281 929,1473.7188 944,1473.7188 L954,1473.7188 " fill="none" style="stroke: #A80036; stroke-width: 1.0;"/><rect fill="#FEFECE" filter="url(#fxn5ga8g4fwit)" height="36.2969" rx="12.5" ry="12.5" style="stroke: #A80036; stroke-width: 1.5;" width="133" x="954" y="1708.9063"/><text fill="#000000" font-family="sans-serif" font-size="14" lengthAdjust="spacingAndGlyphs" textLength="113" x="964" y="1731.9014">Mobile/Frontend</text><rect fill="#FEFECE" filter="url(#fxn5ga8g4fwit)" height="36.2969" rx="12.5" ry="12.5" style="stroke: #A80036; stroke-width: 1.5;" width="129" x="1137" y="1540.0156"/><text fill="#000000" font-family="sans-serif" font-size="14" lengthAdjust="spacingAndGlyphs" textLength="109" x="1147" y="1563.0107">TLS and version</text><path d="M1087,1727.0547 L1097,1727.0547 C1112,1727.0547 1112,1558.1641 1127,1558.1641 L1137,1558.1641 " fill="none" style="stroke: #A80036; stroke-width: 1.0;"/><rect fill="#FEFECE" filter="url(#fxn5ga8g4fwit)" height="36.2969" rx="12.5" ry="12.5" style="stroke: #A80036; stroke-width: 1.5;" width="190" x="1137" y="1596.3125"/><text fill="#000000" font-family="sans-serif" font-size="14" lengthAdjust="spacingAndGlyphs" textLength="170" x="1147" y="1619.3076">Private Key Management</text><path d="M1087,1727.0547 L1097,1727.0547 C1112,1727.0547 1112,1614.4609 1127,1614.4609 L1137,1614.4609 " fill="none" style="stroke: #A80036; stroke-width: 1.0;"/><rect fill="#FEFECE" filter="url(#fxn5ga8g4fwit)" height="36.2969" rx="12.5" ry="12.5" style="stroke: #A80036; stroke-width: 1.5;" width="318" x="1137" y="1652.6094"/><text fill="#000000" font-family="sans-serif" font-size="14" lengthAdjust="spacingAndGlyphs" textLength="298" x="1147" y="1675.6045">Application Layer of OSI encryption/protocol</text><path d="M1087,1727.0547 L1097,1727.0547 C1112,1727.0547 1112,1670.7578 1127,1670.7578 L1137,1670.7578 " fill="none" style="stroke: #A80036; stroke-width: 1.0;"/><rect fill="#FEFECE" filter="url(#fxn5ga8g4fwit)" height="36.2969" rx="12.5" ry="12.5" style="stroke: #A80036; stroke-width: 1.5;" width="104" x="1137" y="1708.9063"/><text fill="#000000" font-family="sans-serif" font-size="14" lengthAdjust="spacingAndGlyphs" textLength="84" x="1147" y="1731.9014">Cert Pinning</text><path d="M1087,1727.0547 L1097,1727.0547 C1112,1727.0547 1112,1727.0547 1127,1727.0547 L1137,1727.0547 " fill="none" style="stroke: #A80036; stroke-width: 1.0;"/><rect fill="#FEFECE" filter="url(#fxn5ga8g4fwit)" height="36.2969" rx="12.5" ry="12.5" style="stroke: #A80036; stroke-width: 1.5;" width="262" x="1137" y="1765.2031"/><text fill="#000000" font-family="sans-serif" font-size="14" lengthAdjust="spacingAndGlyphs" textLength="242" x="1147" y="1788.1982">Runtime Application Self-Protection</text><path d="M1087,1727.0547 L1097,1727.0547 C1112,1727.0547 1112,1783.3516 1127,1783.3516 L1137,1783.3516 " fill="none" style="stroke: #A80036; stroke-width: 1.0;"/><rect fill="#FEFECE" filter="url(#fxn5ga8g4fwit)" height="36.2969" rx="12.5" ry="12.5" style="stroke: #A80036; stroke-width: 1.5;" width="229" x="1137" y="1821.5"/><text fill="#000000" font-family="sans-serif" font-size="14" lengthAdjust="spacingAndGlyphs" textLength="209" x="1147" y="1844.4951">Code Signing and Obfuscation</text><path d="M1087,1727.0547 L1097,1727.0547 C1112,1727.0547 1112,1839.6484 1127,1839.6484 L1137,1839.6484 " fill="none" style="stroke: #A80036; stroke-width: 1.0;"/><rect fill="#FEFECE" filter="url(#fxn5ga8g4fwit)" height="36.2969" rx="12.5" ry="12.5" style="stroke: #A80036; stroke-width: 1.5;" width="85" x="1137" y="1877.7969"/><text fill="#000000" font-family="sans-serif" font-size="14" lengthAdjust="spacingAndGlyphs" textLength="65" x="1147" y="1900.792">Biometric</text><path d="M1087,1727.0547 L1097,1727.0547 C1112,1727.0547 1112,1895.9453 1127,1895.9453 L1137,1895.9453 " fill="none" style="stroke: #A80036; stroke-width: 1.0;"/><path d="M904,1304.8281 L914,1304.8281 C929,1304.8281 929,1727.0547 944,1727.0547 L954,1727.0547 " fill="none" style="stroke: #A80036; stroke-width: 1.0;"/><path d="M726,1881.8711 L736,1881.8711 C751,1881.8711 751,1304.8281 766,1304.8281 L776,1304.8281 " fill="none" style="stroke: #A80036; stroke-width: 1.0;"/><rect fill="#FEFECE" filter="url(#fxn5ga8g4fwit)" height="36.2969" rx="12.5" ry="12.5" style="stroke: #A80036; stroke-width: 1.5;" width="161" x="776" y="2102.9844"/><text fill="#000000" font-family="sans-serif" font-size="14" lengthAdjust="spacingAndGlyphs" textLength="141" x="786" y="2125.9795">Performance Design</text><rect fill="#FEFECE" filter="url(#fxn5ga8g4fwit)" height="36.2969" rx="12.5" ry="12.5" style="stroke: #A80036; stroke-width: 1.5;" width="88" x="987" y="1934.0938"/><text fill="#000000" font-family="sans-serif" font-size="14" lengthAdjust="spacingAndGlyphs" textLength="68" x="997" y="1957.0889">Load Test</text><path d="M937,2121.1328 L947,2121.1328 C962,2121.1328 962,1952.2422 977,1952.2422 L987,1952.2422 " fill="none" style="stroke: #A80036; stroke-width: 1.0;"/><rect fill="#FEFECE" filter="url(#fxn5ga8g4fwit)" height="36.2969" rx="12.5" ry="12.5" style="stroke: #A80036; stroke-width: 1.5;" width="148" x="987" y="1990.3906"/><text fill="#000000" font-family="sans-serif" font-size="14" lengthAdjust="spacingAndGlyphs" textLength="128" x="997" y="2013.3857">Interactive Latency</text><path d="M937,2121.1328 L947,2121.1328 C962,2121.1328 962,2008.5391 977,2008.5391 L987,2008.5391 " fill="none" style="stroke: #A80036; stroke-width: 1.0;"/><rect fill="#FEFECE" filter="url(#fxn5ga8g4fwit)" height="36.2969" rx="12.5" ry="12.5" style="stroke: #A80036; stroke-width: 1.5;" width="108" x="987" y="2046.6875"/><text fill="#000000" font-family="sans-serif" font-size="14" lengthAdjust="spacingAndGlyphs" textLength="88" x="997" y="2069.6826">Concurrency</text><path d="M937,2121.1328 L947,2121.1328 C962,2121.1328 962,2064.8359 977,2064.8359 L987,2064.8359 " fill="none" style="stroke: #A80036; stroke-width: 1.0;"/><rect fill="#FEFECE" filter="url(#fxn5ga8g4fwit)" height="36.2969" rx="12.5" ry="12.5" style="stroke: #A80036; stroke-width: 1.5;" width="130" x="987" y="2102.9844"/><text fill="#000000" font-family="sans-serif" font-size="14" lengthAdjust="spacingAndGlyphs" textLength="110" x="997" y="2125.9795">TPS / HPS / QPS</text><path d="M937,2121.1328 L947,2121.1328 C962,2121.1328 962,2121.1328 977,2121.1328 L987,2121.1328 " fill="none" style="stroke: #A80036; stroke-width: 1.0;"/><rect fill="#FEFECE" filter="url(#fxn5ga8g4fwit)" height="36.2969" rx="12.5" ry="12.5" style="stroke: #A80036; stroke-width: 1.5;" width="99" x="987" y="2159.2813"/><text fill="#000000" font-family="sans-serif" font-size="14" lengthAdjust="spacingAndGlyphs" textLength="79" x="997" y="2182.2764">Benchmark</text><path d="M937,2121.1328 L947,2121.1328 C962,2121.1328 962,2177.4297 977,2177.4297 L987,2177.4297 " fill="none" style="stroke: #A80036; stroke-width: 1.0;"/><rect fill="#FEFECE" filter="url(#fxn5ga8g4fwit)" height="36.2969" rx="12.5" ry="12.5" style="stroke: #A80036; stroke-width: 1.5;" width="48" x="987" y="2215.5781"/><text fill="#000000" font-family="sans-serif" font-size="14" lengthAdjust="spacingAndGlyphs" textLength="28" x="997" y="2238.5732">RTT</text><path d="M937,2121.1328 L947,2121.1328 C962,2121.1328 962,2233.7266 977,2233.7266 L987,2233.7266 " fill="none" style="stroke: #A80036; stroke-width: 1.0;"/><rect fill="#FEFECE" filter="url(#fxn5ga8g4fwit)" height="36.2969" rx="12.5" ry="12.5" style="stroke: #A80036; stroke-width: 1.5;" width="100" x="987" y="2271.875"/><text fill="#000000" font-family="sans-serif" font-size="14" lengthAdjust="spacingAndGlyphs" textLength="80" x="997" y="2294.8701">Cache/CDN</text><path d="M937,2121.1328 L947,2121.1328 C962,2121.1328 962,2290.0234 977,2290.0234 L987,2290.0234 " fill="none" style="stroke: #A80036; stroke-width: 1.0;"/><path d="M726,1881.8711 L736,1881.8711 C751,1881.8711 751,2121.1328 766,2121.1328 L776,2121.1328 " fill="none" style="stroke: #A80036; stroke-width: 1.0;"/><rect fill="#FEFECE" filter="url(#fxn5ga8g4fwit)" height="36.2969" rx="12.5" ry="12.5" style="stroke: #A80036; stroke-width: 1.5;" width="153" x="776" y="2356.3203"/><text fill="#000000" font-family="sans-serif" font-size="14" lengthAdjust="spacingAndGlyphs" textLength="133" x="786" y="2379.3154">Extensibility Design</text><rect fill="#FEFECE" filter="url(#fxn5ga8g4fwit)" height="36.2969" rx="12.5" ry="12.5" style="stroke: #A80036; stroke-width: 1.5;" width="121" x="979" y="2328.1719"/><text fill="#000000" font-family="sans-serif" font-size="14" lengthAdjust="spacingAndGlyphs" textLength="101" x="989" y="2351.167">modularisation</text><path d="M929,2374.4688 L939,2374.4688 C954,2374.4688 954,2346.3203 969,2346.3203 L979,2346.3203 " fill="none" style="stroke: #A80036; stroke-width: 1.0;"/><rect fill="#FEFECE" filter="url(#fxn5ga8g4fwit)" height="36.2969" rx="12.5" ry="12.5" style="stroke: #A80036; stroke-width: 1.5;" width="94" x="979" y="2384.4688"/><text fill="#000000" font-family="sans-serif" font-size="14" lengthAdjust="spacingAndGlyphs" textLength="74" x="989" y="2407.4639">integration</text><path d="M929,2374.4688 L939,2374.4688 C954,2374.4688 954,2402.6172 969,2402.6172 L979,2402.6172 " fill="none" style="stroke: #A80036; stroke-width: 1.0;"/><path d="M726,1881.8711 L736,1881.8711 C751,1881.8711 751,2374.4688 766,2374.4688 L776,2374.4688 " fill="none" style="stroke: #A80036; stroke-width: 1.0;"/><rect fill="#FEFECE" filter="url(#fxn5ga8g4fwit)" height="36.2969" rx="12.5" ry="12.5" style="stroke: #A80036; stroke-width: 1.5;" width="139" x="776" y="2581.5078"/><text fill="#000000" font-family="sans-serif" font-size="14" lengthAdjust="spacingAndGlyphs" textLength="119" x="786" y="2604.5029">Scalability Design</text><rect fill="#FEFECE" filter="url(#fxn5ga8g4fwit)" height="36.2969" rx="12.5" ry="12.5" style="stroke: #A80036; stroke-width: 1.5;" width="137" x="965" y="2440.7656"/><text fill="#000000" font-family="sans-serif" font-size="14" lengthAdjust="spacingAndGlyphs" textLength="117" x="975" y="2463.7607">Traffic Estimation</text><path d="M915,2599.6563 L925,2599.6563 C940,2599.6563 940,2458.9141 955,2458.9141 L965,2458.9141 " fill="none" style="stroke: #A80036; stroke-width: 1.0;"/><rect fill="#FEFECE" filter="url(#fxn5ga8g4fwit)" height="36.2969" rx="12.5" ry="12.5" style="stroke: #A80036; stroke-width: 1.5;" width="144" x="965" y="2497.0625"/><text fill="#000000" font-family="sans-serif" font-size="14" lengthAdjust="spacingAndGlyphs" textLength="124" x="975" y="2520.0576">Resilience Design</text><path d="M915,2599.6563 L925,2599.6563 C940,2599.6563 940,2515.2109 955,2515.2109 L965,2515.2109 " fill="none" style="stroke: #A80036; stroke-width: 1.0;"/><rect fill="#FEFECE" filter="url(#fxn5ga8g4fwit)" height="36.2969" rx="12.5" ry="12.5" style="stroke: #A80036; stroke-width: 1.5;" width="143" x="965" y="2553.3594"/><text fill="#000000" font-family="sans-serif" font-size="14" lengthAdjust="spacingAndGlyphs" textLength="123" x="975" y="2576.3545">AutoScale Metrics</text><path d="M915,2599.6563 L925,2599.6563 C940,2599.6563 940,2571.5078 955,2571.5078 L965,2571.5078 " fill="none" style="stroke: #A80036; stroke-width: 1.0;"/><rect fill="#FEFECE" filter="url(#fxn5ga8g4fwit)" height="36.2969" rx="12.5" ry="12.5" style="stroke: #A80036; stroke-width: 1.5;" width="165" x="965" y="2609.6563"/><text fill="#000000" font-family="sans-serif" font-size="14" lengthAdjust="spacingAndGlyphs" textLength="145" x="975" y="2632.6514">Application Scalability</text><path d="M915,2599.6563 L925,2599.6563 C940,2599.6563 940,2627.8047 955,2627.8047 L965,2627.8047 " fill="none" style="stroke: #A80036; stroke-width: 1.0;"/><rect fill="#FEFECE" filter="url(#fxn5ga8g4fwit)" height="36.2969" rx="12.5" ry="12.5" style="stroke: #A80036; stroke-width: 1.5;" width="180" x="965" y="2665.9531"/><text fill="#000000" font-family="sans-serif" font-size="14" lengthAdjust="spacingAndGlyphs" textLength="160" x="975" y="2688.9482">Data Storage Scalability</text><path d="M915,2599.6563 L925,2599.6563 C940,2599.6563 940,2684.1016 955,2684.1016 L965,2684.1016 " fill="none" style="stroke: #A80036; stroke-width: 1.0;"/><rect fill="#FEFECE" filter="url(#fxn5ga8g4fwit)" height="36.2969" rx="12.5" ry="12.5" style="stroke: #A80036; stroke-width: 1.5;" width="156" x="965" y="2722.25"/><text fill="#000000" font-family="sans-serif" font-size="14" lengthAdjust="spacingAndGlyphs" textLength="136" x="975" y="2745.2451">Database Scalability</text><path d="M915,2599.6563 L925,2599.6563 C940,2599.6563 940,2740.3984 955,2740.3984 L965,2740.3984 " fill="none" style="stroke: #A80036; stroke-width: 1.0;"/><path d="M726,1881.8711 L736,1881.8711 C751,1881.8711 751,2599.6563 766,2599.6563 L776,2599.6563 " fill="none" style="stroke: #A80036; stroke-width: 1.0;"/><rect fill="#FEFECE" filter="url(#fxn5ga8g4fwit)" height="36.2969" rx="12.5" ry="12.5" style="stroke: #A80036; stroke-width: 1.5;" width="141" x="776" y="2891.1406"/><text fill="#000000" font-family="sans-serif" font-size="14" lengthAdjust="spacingAndGlyphs" textLength="121" x="786" y="2914.1357">Availability Design</text><rect fill="#FEFECE" filter="url(#fxn5ga8g4fwit)" height="36.2969" rx="12.5" ry="12.5" style="stroke: #A80036; stroke-width: 1.5;" width="198" x="967" y="2778.5469"/><text fill="#000000" font-family="sans-serif" font-size="14" lengthAdjust="spacingAndGlyphs" textLength="178" x="977" y="2801.542">Disaster Recovery Design</text><path d="M917,2909.2891 L927,2909.2891 C942,2909.2891 942,2796.6953 957,2796.6953 L967,2796.6953 " fill="none" style="stroke: #A80036; stroke-width: 1.0;"/><rect fill="#FEFECE" filter="url(#fxn5ga8g4fwit)" height="36.2969" rx="12.5" ry="12.5" style="stroke: #A80036; stroke-width: 1.5;" width="45" x="967" y="2834.8438"/><text fill="#000000" font-family="sans-serif" font-size="14" lengthAdjust="spacingAndGlyphs" textLength="25" x="977" y="2857.8389">SLA</text><path d="M917,2909.2891 L927,2909.2891 C942,2909.2891 942,2852.9922 957,2852.9922 L967,2852.9922 " fill="none" style="stroke: #A80036; stroke-width: 1.0;"/><rect fill="#FEFECE" filter="url(#fxn5ga8g4fwit)" height="36.2969" rx="12.5" ry="12.5" style="stroke: #A80036; stroke-width: 1.5;" width="49" x="967" y="2891.1406"/><text fill="#000000" font-family="sans-serif" font-size="14" lengthAdjust="spacingAndGlyphs" textLength="29" x="977" y="2914.1357">QoS</text><path d="M917,2909.2891 L927,2909.2891 C942,2909.2891 942,2909.2891 957,2909.2891 L967,2909.2891 " fill="none" style="stroke: #A80036; stroke-width: 1.0;"/><rect fill="#FEFECE" filter="url(#fxn5ga8g4fwit)" height="36.2969" rx="12.5" ry="12.5" style="stroke: #A80036; stroke-width: 1.5;" width="167" x="967" y="2947.4375"/><text fill="#000000" font-family="sans-serif" font-size="14" lengthAdjust="spacingAndGlyphs" textLength="147" x="977" y="2970.4326">Single Point of Failure</text><path d="M917,2909.2891 L927,2909.2891 C942,2909.2891 942,2965.5859 957,2965.5859 L967,2965.5859 " fill="none" style="stroke: #A80036; stroke-width: 1.0;"/><rect fill="#FEFECE" filter="url(#fxn5ga8g4fwit)" height="36.2969" rx="12.5" ry="12.5" style="stroke: #A80036; stroke-width: 1.5;" width="187" x="967" y="3003.7344"/><text fill="#000000" font-family="sans-serif" font-size="14" lengthAdjust="spacingAndGlyphs" textLength="167" x="977" y="3026.7295">Deployment Automation</text><path d="M917,2909.2891 L927,2909.2891 C942,2909.2891 942,3021.8828 957,3021.8828 L967,3021.8828 " fill="none" style="stroke: #A80036; stroke-width: 1.0;"/><path d="M726,1881.8711 L736,1881.8711 C751,1881.8711 751,2909.2891 766,2909.2891 L776,2909.2891 " fill="none" style="stroke: #A80036; stroke-width: 1.0;"/><rect fill="#FEFECE" filter="url(#fxn5ga8g4fwit)" height="36.2969" rx="12.5" ry="12.5" style="stroke: #A80036; stroke-width: 1.5;" width="151" x="776" y="3031.8828"/><text fill="#000000" font-family="sans-serif" font-size="14" lengthAdjust="spacingAndGlyphs" textLength="131" x="786" y="3054.8779">Affordability Design</text><path d="M726,1881.8711 L736,1881.8711 C751,1881.8711 751,3050.0313 766,3050.0313 L776,3050.0313 " fill="none" style="stroke: #A80036; stroke-width: 1.0;"/><path d="M382,1600.3867 L392,1600.3867 C407,1600.3867 407,1881.8711 422,1881.8711 L432,1881.8711 " fill="none" style="stroke: #A80036; stroke-width: 1.0;"/><path d="M190,1712.9805 L200,1712.9805 C215,1712.9805 215,1600.3867 230,1600.3867 L240,1600.3867 " fill="none" style="stroke: #A80036; stroke-width: 1.0;"/><rect fill="#FEFECE" filter="url(#fxn5ga8g4fwit)" height="36.2969" rx="12.5" ry="12.5" style="stroke: #A80036; stroke-width: 1.5;" width="223" x="240" y="3088.1797"/><text fill="#000000" font-family="sans-serif" font-size="14" lengthAdjust="spacingAndGlyphs" textLength="203" x="250" y="3111.1748">Assumptions and Constraints</text><path d="M190,1712.9805 L200,1712.9805 C215,1712.9805 215,3106.3281 230,3106.3281 L240,3106.3281 " fill="none" style="stroke: #A80036; stroke-width: 1.0;"/><rect fill="#FEFECE" filter="url(#fxn5ga8g4fwit)" height="36.2969" rx="12.5" ry="12.5" style="stroke: #A80036; stroke-width: 1.5;" width="86" x="240" y="3228.9219"/><text fill="#000000" font-family="sans-serif" font-size="14" lengthAdjust="spacingAndGlyphs" textLength="66" x="250" y="3251.917">Roadmap</text><rect fill="#FEFECE" filter="url(#fxn5ga8g4fwit)" height="36.2969" rx="12.5" ry="12.5" style="stroke: #A80036; stroke-width: 1.5;" width="40" x="376" y="3144.4766"/><text fill="#000000" font-family="sans-serif" font-size="14" lengthAdjust="spacingAndGlyphs" textLength="20" x="386" y="3167.4717">Q1</text><path d="M326,3247.0703 L336,3247.0703 C351,3247.0703 351,3162.625 366,3162.625 L376,3162.625 " fill="none" style="stroke: #A80036; stroke-width: 1.0;"/><rect fill="#FEFECE" filter="url(#fxn5ga8g4fwit)" height="36.2969" rx="12.5" ry="12.5" style="stroke: #A80036; stroke-width: 1.5;" width="40" x="376" y="3200.7734"/><text fill="#000000" font-family="sans-serif" font-size="14" lengthAdjust="spacingAndGlyphs" textLength="20" x="386" y="3223.7686">Q2</text><path d="M326,3247.0703 L336,3247.0703 C351,3247.0703 351,3218.9219 366,3218.9219 L376,3218.9219 " fill="none" style="stroke: #A80036; stroke-width: 1.0;"/><rect fill="#FEFECE" filter="url(#fxn5ga8g4fwit)" height="36.2969" rx="12.5" ry="12.5" style="stroke: #A80036; stroke-width: 1.5;" width="40" x="376" y="3257.0703"/><text fill="#000000" font-family="sans-serif" font-size="14" lengthAdjust="spacingAndGlyphs" textLength="20" x="386" y="3280.0654">Q3</text><path d="M326,3247.0703 L336,3247.0703 C351,3247.0703 351,3275.2188 366,3275.2188 L376,3275.2188 " fill="none" style="stroke: #A80036; stroke-width: 1.0;"/><rect fill="#FEFECE" filter="url(#fxn5ga8g4fwit)" height="36.2969" rx="12.5" ry="12.5" style="stroke: #A80036; stroke-width: 1.5;" width="40" x="376" y="3313.3672"/><text fill="#000000" font-family="sans-serif" font-size="14" lengthAdjust="spacingAndGlyphs" textLength="20" x="386" y="3336.3623">Q4</text><path d="M326,3247.0703 L336,3247.0703 C351,3247.0703 351,3331.5156 366,3331.5156 L376,3331.5156 " fill="none" style="stroke: #A80036; stroke-width: 1.0;"/><path d="M190,1712.9805 L200,1712.9805 C215,1712.9805 215,3247.0703 230,3247.0703 L240,3247.0703 " fill="none" style="stroke: #A80036; stroke-width: 1.0;"/><rect fill="#FEFECE" filter="url(#fxn5ga8g4fwit)" height="36.2969" rx="12.5" ry="12.5" style="stroke: #A80036; stroke-width: 1.5;" width="177" x="240" y="3369.6641"/><text fill="#000000" font-family="sans-serif" font-size="14" lengthAdjust="spacingAndGlyphs" textLength="157" x="250" y="3392.6592">Reference Documents</text><path d="M190,1712.9805 L200,1712.9805 C215,1712.9805 215,3387.8125 230,3387.8125 L240,3387.8125 " fill="none" style="stroke: #A80036; stroke-width: 1.0;"/><!--MD5=[d70789f79db430596b399cf401197f1a]
@startmindmap


* Design Documentation
** Introduction
*** Background
*** Scope
** Solution Overview
*** Requirements
**** Functional Requirements
**** Non-functional Requirements
***** Logging and Data Insight
***** Monitoring
***** Audit Trails

*** Solution Details\nto resolve Functional Requirements
**** Components Diagram
**** Flow Chart
**** Sequence Diagram
**** API Documents
***** Interface Design
****** Params Definition
****** UML
***** Data Validation
****** Input
****** Output


*** Architecture Design\nto resolve Non-functional Requirements
**** Security Design
***** Data Classification
***** Data Retention
***** Access Control Management
****** Authentication
****** Authorization
****** Accountability
***** Cryptographic Mechanism
****** Encryption Control
****** Cryptographic Integrity Controls
***** Information Storage
****** Critical Files
***** Network Security
****** Application Gateway Rules
****** API Management Rules
****** VNET Protection
****** Ingress
****** Egress
***** Web Application Security Design
***** Code Scan
****** Static Code Analysis
****** Dynamic Code Analysis
***** Mobile/Frontend
****** TLS and version
****** Private Key Management
****** Application Layer of OSI encryption/protocol
****** Cert Pinning
****** Runtime Application Self-Protection
****** Code Signing and Obfuscation
****** Biometric

**** Performance Design
***** Load Test
***** Interactive Latency
***** Concurrency
***** TPS / HPS / QPS
***** Benchmark
***** RTT
***** Cache/CDN

**** Extensibility Design
***** modularisation
***** integration

**** Scalability Design
***** Traffic Estimation
***** Resilience Design
***** AutoScale Metrics
***** Application Scalability
***** Data Storage Scalability
***** Database Scalability

**** Availability Design
***** Disaster Recovery Design
***** SLA
***** QoS
***** Single Point of Failure
***** Deployment Automation

**** Affordability Design

** Assumptions and Constraints
** Roadmap
*** Q1
*** Q2
*** Q3
*** Q4
** Reference Documents

@endmindmap

PlantUML version 1.2019.12(Sun Nov 03 10:24:54 UTC 2019)
(GPL source distribution)
Java Runtime: Java(TM) SE Runtime Environment
JVM: Java HotSpot(TM) 64-Bit Server VM
Java Version: 1.7.0_25-b15
Operating System: Linux
Default Encoding: UTF-8
Language: en
Country: US
--></g></svg>