<?xml version="1.0" standalone="no"?>
<!DOCTYPE svg PUBLIC "-//W3C//DTD SVG 1.1//EN"
  "http://www.w3.org/Graphics/SVG/1.1/DTD/svg11.dtd">
<svg xmlns="http://www.w3.org/2000/svg" version="1.1"
     width="982px" height="755px" viewBox="-15 -462 982 775">
  <defs>
    <style type="text/css"><![CDATA[
      .markmap-node {
        cursor: pointer;
      }

      .markmap-node-circle {
        fill: #fff;
        stroke-width: 1.5px;
      }

      .markmap-node-text {
        fill:  #000;
        font: 10px sans-serif;
      }

      .markmap-link {
        fill: none;
      }
    ]]></style>
  </defs>
  <g><path class="markmap-link" stroke="#929292" stroke-width="1" d="M384.3193359375,273.125C414.3193359375,273.125 414.3193359375,248.125 444.3193359375,248.125"></path><path class="markmap-link" stroke="#929292" stroke-width="1" d="M384.3193359375,273.125C414.3193359375,273.125 414.3193359375,273.125 444.3193359375,273.125"></path><path class="markmap-link" stroke="#929292" stroke-width="1" d="M384.3193359375,273.125C414.3193359375,273.125 414.3193359375,298.125 444.3193359375,298.125"></path><path class="markmap-link" stroke="#929292" stroke-width="1" d="M354.87109375,180.625C384.87109375,180.625 384.87109375,143.125 414.87109375,143.125"></path><path class="markmap-link" stroke="#929292" stroke-width="1" d="M354.87109375,180.625C384.87109375,180.625 384.87109375,168.125 414.87109375,168.125"></path><path class="markmap-link" stroke="#929292" stroke-width="1" d="M354.87109375,180.625C384.87109375,180.625 384.87109375,193.125 414.87109375,193.125"></path><path class="markmap-link" stroke="#929292" stroke-width="1" d="M354.87109375,180.625C384.87109375,180.625 384.87109375,218.125 414.87109375,218.125"></path><path class="markmap-link" stroke="#929292" stroke-width="1" d="M258.6396484375,226.875C288.6396484375,226.875 288.6396484375,180.625 318.6396484375,180.625"></path><path class="markmap-link" stroke="#929292" stroke-width="1" d="M258.6396484375,226.875C288.6396484375,226.875 288.6396484375,273.125 318.6396484375,273.125"></path><path class="markmap-link" stroke="#929292" stroke-width="1" d="M436.58984375,58.125C466.58984375,58.125 466.58984375,33.125 496.58984375,33.125"></path><path class="markmap-link" stroke="#929292" stroke-width="1" d="M436.58984375,58.125C466.58984375,58.125 466.58984375,58.125 496.58984375,58.125"></path><path class="markmap-link" stroke="#929292" stroke-width="1" d="M436.58984375,58.125C466.58984375,58.125 466.58984375,83.125 496.58984375,83.125"></path><path class="markmap-link" stroke="#929292" stroke-width="1" d="M572.1806640625,3.125C602.1806640625,3.125 602.1806640625,-9.375 632.1806640625,-9.375"></path><path class="markmap-link" stroke="#929292" stroke-width="1" d="M572.1806640625,3.125C602.1806640625,3.125 602.1806640625,15.625 632.1806640625,15.625"></path><path class="markmap-link" stroke="#929292" stroke-width="1" d="M273.64453125,58.125C303.64453125,58.125 303.64453125,3.125 333.64453125,3.125"></path><path class="markmap-link" stroke="#929292" stroke-width="1" d="M273.64453125,58.125C303.64453125,58.125 303.64453125,58.125 333.64453125,58.125"></path><path class="markmap-link" stroke="#929292" stroke-width="1" d="M273.64453125,58.125C303.64453125,58.125 303.64453125,113.125 333.64453125,113.125"></path><path class="markmap-link" stroke="#929292" stroke-width="1" d="M623.3974609375,-94.375C653.3974609375,-94.375 653.3974609375,-119.375 683.3974609375,-119.375"></path><path class="markmap-link" stroke="#929292" stroke-width="1" d="M623.3974609375,-94.375C653.3974609375,-94.375 653.3974609375,-94.375 683.3974609375,-94.375"></path><path class="markmap-link" stroke="#929292" stroke-width="1" d="M623.3974609375,-94.375C653.3974609375,-94.375 653.3974609375,-69.375 683.3974609375,-69.375"></path><path class="markmap-link" stroke="#929292" stroke-width="1" d="M648.9736328125,-174.375C678.9736328125,-174.375 678.9736328125,-199.375 708.9736328125,-199.375"></path><path class="markmap-link" stroke="#929292" stroke-width="1" d="M648.9736328125,-174.375C678.9736328125,-174.375 678.9736328125,-174.375 708.9736328125,-174.375"></path><path class="markmap-link" stroke="#929292" stroke-width="1" d="M648.9736328125,-174.375C678.9736328125,-174.375 678.9736328125,-149.375 708.9736328125,-149.375"></path><path class="markmap-link" stroke="#929292" stroke-width="1" d="M412.6640625,-144.375C442.6640625,-144.375 442.6640625,-249.375 472.6640625,-249.375"></path><path class="markmap-link" stroke="#929292" stroke-width="1" d="M412.6640625,-144.375C442.6640625,-144.375 442.6640625,-224.375 472.6640625,-224.375"></path><path class="markmap-link" stroke="#929292" stroke-width="1" d="M412.6640625,-144.375C442.6640625,-144.375 442.6640625,-199.375 472.6640625,-199.375"></path><path class="markmap-link" stroke="#929292" stroke-width="1" d="M412.6640625,-144.375C442.6640625,-144.375 442.6640625,-174.375 472.6640625,-174.375"></path><path class="markmap-link" stroke="#929292" stroke-width="1" d="M412.6640625,-144.375C442.6640625,-144.375 442.6640625,-94.375 472.6640625,-94.375"></path><path class="markmap-link" stroke="#929292" stroke-width="1" d="M412.6640625,-144.375C442.6640625,-144.375 442.6640625,-39.375 472.6640625,-39.375"></path><path class="markmap-link" stroke="#929292" stroke-width="1" d="M690.341796875,-279.375C720.341796875,-279.375 720.341796875,-329.375 750.341796875,-329.375"></path><path class="markmap-link" stroke="#929292" stroke-width="1" d="M690.341796875,-279.375C720.341796875,-279.375 720.341796875,-304.375 750.341796875,-304.375"></path><path class="markmap-link" stroke="#929292" stroke-width="1" d="M690.341796875,-279.375C720.341796875,-279.375 720.341796875,-279.375 750.341796875,-279.375"></path><path class="markmap-link" stroke="#929292" stroke-width="1" d="M690.341796875,-279.375C720.341796875,-279.375 720.341796875,-254.375 750.341796875,-254.375"></path><path class="markmap-link" stroke="#929292" stroke-width="1" d="M690.341796875,-279.375C720.341796875,-279.375 720.341796875,-229.375 750.341796875,-229.375"></path><path class="markmap-link" stroke="#929292" stroke-width="1" d="M500.16015625,-304.375C530.16015625,-304.375 530.16015625,-329.375 560.16015625,-329.375"></path><path class="markmap-link" stroke="#929292" stroke-width="1" d="M500.16015625,-304.375C530.16015625,-304.375 530.16015625,-279.375 560.16015625,-279.375"></path><path class="markmap-link" stroke="#929292" stroke-width="1" d="M567.3916015625,-371.875C597.3916015625,-371.875 597.3916015625,-384.375 627.3916015625,-384.375"></path><path class="markmap-link" stroke="#929292" stroke-width="1" d="M567.3916015625,-371.875C597.3916015625,-371.875 597.3916015625,-359.375 627.3916015625,-359.375"></path><path class="markmap-link" stroke="#929292" stroke-width="1" d="M490.1357421875,-414.375C520.1357421875,-414.375 520.1357421875,-426.875 550.1357421875,-426.875"></path><path class="markmap-link" stroke="#929292" stroke-width="1" d="M490.1357421875,-414.375C520.1357421875,-414.375 520.1357421875,-401.875 550.1357421875,-401.875"></path><path class="markmap-link" stroke="#929292" stroke-width="1" d="M350.017578125,-359.375C380.017578125,-359.375 380.017578125,-414.375 410.017578125,-414.375"></path><path class="markmap-link" stroke="#929292" stroke-width="1" d="M350.017578125,-359.375C380.017578125,-359.375 380.017578125,-371.875 410.017578125,-371.875"></path><path class="markmap-link" stroke="#929292" stroke-width="1" d="M350.017578125,-359.375C380.017578125,-359.375 380.017578125,-304.375 410.017578125,-304.375"></path><path class="markmap-link" stroke="#929292" stroke-width="1" d="M134.6796875,-251.875C164.6796875,-251.875 164.6796875,-359.375 194.6796875,-359.375"></path><path class="markmap-link" stroke="#929292" stroke-width="1" d="M134.6796875,-251.875C164.6796875,-251.875 164.6796875,-144.375 194.6796875,-144.375"></path><path class="markmap-link" stroke="#929292" stroke-width="1" d="M41.2314453125,0C71.2314453125,0 71.2314453125,-251.875 101.2314453125,-251.875"></path><path class="markmap-link" stroke="#929292" stroke-width="1" d="M41.2314453125,0C71.2314453125,0 71.2314453125,58.125 101.2314453125,58.125"></path><path class="markmap-link" stroke="#929292" stroke-width="1" d="M41.2314453125,0C71.2314453125,0 71.2314453125,226.875 101.2314453125,226.875"></path><path class="markmap-link" stroke="#929292" stroke-width="1" d="M41.2314453125,0C71.2314453125,0 71.2314453125,251.875 101.2314453125,251.875"></path><g class="markmap-node" transform="translate(101.2314453125,251.875)"><rect class="markmap-node-rect" y="-10" x="-1" width="87.1376953125" height="20" fill="#dfdfdf" rx="10" ry="10" stroke="#929292" stroke-width="1"></rect><circle class="markmap-node-circle" cx="85.1376953125" stroke="#929292" r="4.5" style="display: none;"></circle><text class="markmap-node-text" x="10" dy="3" text-anchor="start" style="fill-opacity: 1;">Data Analysis</text></g><g class="markmap-node" transform="translate(444.3193359375,298.125)"><rect class="markmap-node-rect" y="-10" x="-1" width="62.1376953125" height="20" fill="#dfdfdf" rx="10" ry="10" stroke="#929292" stroke-width="1"></rect><circle class="markmap-node-circle" cx="60.1376953125" stroke="#929292" r="4.5" style="display: none;"></circle><text class="markmap-node-text" x="10" dy="3" text-anchor="start" style="fill-opacity: 1;">Bigtable</text></g><g class="markmap-node" transform="translate(444.3193359375,273.125)"><rect class="markmap-node-rect" y="-10" x="-1" width="79.9208984375" height="20" fill="#dfdfdf" rx="10" ry="10" stroke="#929292" stroke-width="1"></rect><circle class="markmap-node-circle" cx="77.9208984375" stroke="#929292" r="4.5" style="display: none;"></circle><text class="markmap-node-text" x="10" dy="3" text-anchor="start" style="fill-opacity: 1;">MapReduce</text></g><g class="markmap-node" transform="translate(444.3193359375,248.125)"><rect class="markmap-node-rect" y="-10" x="-1" width="73.802734375" height="20" fill="#dfdfdf" rx="10" ry="10" stroke="#929292" stroke-width="1"></rect><circle class="markmap-node-circle" cx="71.802734375" stroke="#929292" r="4.5" style="display: none;"></circle><text class="markmap-node-text" x="10" dy="3" text-anchor="start" style="fill-opacity: 1;">Google FS</text></g><g class="markmap-node" transform="translate(318.6396484375,273.125)"><rect class="markmap-node-rect" y="-10" x="-1" width="67.6796875" height="20" fill="#dfdfdf" rx="10" ry="10" stroke="#929292" stroke-width="1"></rect><circle class="markmap-node-circle" cx="65.6796875" stroke="#929292" r="4.5"></circle><text class="markmap-node-text" x="10" dy="3" text-anchor="start" style="fill-opacity: 1;">3 Factors</text></g><g class="markmap-node" transform="translate(414.87109375,218.125)"><rect class="markmap-node-rect" y="-10" x="-1" width="50.833984375" height="20" fill="#dfdfdf" rx="10" ry="10" stroke="#929292" stroke-width="1"></rect><circle class="markmap-node-circle" cx="48.833984375" stroke="#929292" r="4.5" style="display: none;"></circle><text class="markmap-node-text" x="10" dy="3" text-anchor="start" style="fill-opacity: 1;">Value</text></g><g class="markmap-node" transform="translate(414.87109375,193.125)"><rect class="markmap-node-rect" y="-10" x="-1" width="56.380859375" height="20" fill="#dfdfdf" rx="10" ry="10" stroke="#929292" stroke-width="1"></rect><circle class="markmap-node-circle" cx="54.380859375" stroke="#929292" r="4.5" style="display: none;"></circle><text class="markmap-node-text" x="10" dy="3" text-anchor="start" style="fill-opacity: 1;">Variety</text></g><g class="markmap-node" transform="translate(414.87109375,168.125)"><rect class="markmap-node-rect" y="-10" x="-1" width="60.462890625" height="20" fill="#dfdfdf" rx="10" ry="10" stroke="#929292" stroke-width="1"></rect><circle class="markmap-node-circle" cx="58.462890625" stroke="#929292" r="4.5" style="display: none;"></circle><text class="markmap-node-text" x="10" dy="3" text-anchor="start" style="fill-opacity: 1;">Velocity</text></g><g class="markmap-node" transform="translate(414.87109375,143.125)"><rect class="markmap-node-rect" y="-10" x="-1" width="59.3544921875" height="20" fill="#dfdfdf" rx="10" ry="10" stroke="#929292" stroke-width="1"></rect><circle class="markmap-node-circle" cx="57.3544921875" stroke="#929292" r="4.5" style="display: none;"></circle><text class="markmap-node-text" x="10" dy="3" text-anchor="start" style="fill-opacity: 1;">Volume</text></g><g class="markmap-node" transform="translate(318.6396484375,180.625)"><rect class="markmap-node-rect" y="-10" x="-1" width="38.2314453125" height="20" fill="#dfdfdf" rx="10" ry="10" stroke="#929292" stroke-width="1"></rect><circle class="markmap-node-circle" cx="36.2314453125" stroke="#929292" r="4.5"></circle><text class="markmap-node-text" x="10" dy="3" text-anchor="start" style="fill-opacity: 1;">4V</text></g><g class="markmap-node" transform="translate(101.2314453125,226.875)"><rect class="markmap-node-rect" y="-10" x="-1" width="159.408203125" height="20" fill="#dfdfdf" rx="10" ry="10" stroke="#929292" stroke-width="1"></rect><circle class="markmap-node-circle" cx="157.408203125" stroke="#929292" r="4.5"></circle><text class="markmap-node-text" x="10" dy="3" text-anchor="start" style="fill-opacity: 1;">Big Data vs Machine Learning</text></g><g class="markmap-node" transform="translate(333.64453125,113.125)"><rect class="markmap-node-rect" y="-10" x="-1" width="229.0859375" height="20" fill="#dfdfdf" rx="10" ry="10" stroke="#929292" stroke-width="1"></rect><circle class="markmap-node-circle" cx="227.0859375" stroke="#929292" r="4.5" style="display: none;"></circle><text class="markmap-node-text" x="10" dy="3" text-anchor="start" style="fill-opacity: 1;">NLP, Computer Visual and Sound Recogniz…</text></g><g class="markmap-node" transform="translate(496.58984375,83.125)"><rect class="markmap-node-rect" y="-10" x="-1" width="105.482421875" height="20" fill="#dfdfdf" rx="10" ry="10" stroke="#929292" stroke-width="1"></rect><circle class="markmap-node-circle" cx="103.482421875" stroke="#929292" r="4.5" style="display: none;"></circle><text class="markmap-node-text" x="10" dy="3" text-anchor="start" style="fill-opacity: 1;">Association Rules</text></g><g class="markmap-node" transform="translate(496.58984375,58.125)"><rect class="markmap-node-rect" y="-10" x="-1" width="158.8369140625" height="20" fill="#dfdfdf" rx="10" ry="10" stroke="#929292" stroke-width="1"></rect><circle class="markmap-node-circle" cx="156.8369140625" stroke="#929292" r="4.5" style="display: none;"></circle><text class="markmap-node-text" x="10" dy="3" text-anchor="start" style="fill-opacity: 1;">Information Index Sub-system</text></g><g class="markmap-node" transform="translate(496.58984375,33.125)"><rect class="markmap-node-rect" y="-10" x="-1" width="116.01953125" height="20" fill="#dfdfdf" rx="10" ry="10" stroke="#929292" stroke-width="1"></rect><circle class="markmap-node-circle" cx="114.01953125" stroke="#929292" r="4.5" style="display: none;"></circle><text class="markmap-node-text" x="10" dy="3" text-anchor="start" style="fill-opacity: 1;">Crawler Sub-system</text></g><g class="markmap-node" transform="translate(333.64453125,58.125)"><rect class="markmap-node-rect" y="-10" x="-1" width="104.9453125" height="20" fill="#dfdfdf" rx="10" ry="10" stroke="#929292" stroke-width="1"></rect><circle class="markmap-node-circle" cx="102.9453125" stroke="#929292" r="4.5"></circle><text class="markmap-node-text" x="10" dy="3" text-anchor="start" style="fill-opacity: 1;">Searching Engine</text></g><g class="markmap-node" transform="translate(632.1806640625,15.625)"><rect class="markmap-node-rect" y="-10" x="-1" width="211.3515625" height="20" fill="#dfdfdf" rx="10" ry="10" stroke="#929292" stroke-width="1"></rect><circle class="markmap-node-circle" cx="209.3515625" stroke="#929292" r="4.5" style="display: none;"></circle><text class="markmap-node-text" x="10" dy="3" text-anchor="start" style="fill-opacity: 1;">Data Mining -&gt; Mining new characteristi…</text></g><g class="markmap-node" transform="translate(632.1806640625,-9.375)"><rect class="markmap-node-rect" y="-10" x="-1" width="219.7060546875" height="20" fill="#dfdfdf" rx="10" ry="10" stroke="#929292" stroke-width="1"></rect><circle class="markmap-node-circle" cx="217.7060546875" stroke="#929292" r="4.5" style="display: none;"></circle><text class="markmap-node-text" x="10" dy="3" text-anchor="start" style="fill-opacity: 1;">Machine Learning -&gt; CTR Prediction algo…</text></g><g class="markmap-node" transform="translate(333.64453125,3.125)"><rect class="markmap-node-rect" y="-10" x="-1" width="240.5361328125" height="20" fill="#dfdfdf" rx="10" ry="10" stroke="#929292" stroke-width="1"></rect><circle class="markmap-node-circle" cx="238.5361328125" stroke="#929292" r="4.5"></circle><text class="markmap-node-text" x="10" dy="3" text-anchor="start" style="fill-opacity: 1;">Recommended System and Advertisement Sy…</text></g><g class="markmap-node" transform="translate(101.2314453125,58.125)"><rect class="markmap-node-rect" y="-10" x="-1" width="174.4130859375" height="20" fill="#dfdfdf" rx="10" ry="10" stroke="#929292" stroke-width="1"></rect><circle class="markmap-node-circle" cx="172.4130859375" stroke="#929292" r="4.5"></circle><text class="markmap-node-text" x="10" dy="3" text-anchor="start" style="fill-opacity: 1;">Data Mining vs Machine Learning</text></g><g class="markmap-node" transform="translate(472.6640625,-39.375)"><rect class="markmap-node-rect" y="-10" x="-1" width="221.673828125" height="20" fill="#dfdfdf" rx="10" ry="10" stroke="#929292" stroke-width="1"></rect><circle class="markmap-node-circle" cx="219.673828125" stroke="#929292" r="4.5" style="display: none;"></circle><text class="markmap-node-text" x="10" dy="3" text-anchor="start" style="fill-opacity: 1;">Deep Learning = AutoEncoder + Multilaye…</text></g><g class="markmap-node" transform="translate(683.3974609375,-69.375)"><rect class="markmap-node-rect" y="-10" x="-1" width="145.5068359375" height="20" fill="#dfdfdf" rx="10" ry="10" stroke="#929292" stroke-width="1"></rect><circle class="markmap-node-circle" cx="143.5068359375" stroke="#929292" r="4.5" style="display: none;"></circle><text class="markmap-node-text" x="10" dy="3" text-anchor="start" style="fill-opacity: 1;">Machine Learning Platform</text></g><g class="markmap-node" transform="translate(683.3974609375,-94.375)"><rect class="markmap-node-rect" y="-10" x="-1" width="161.6494140625" height="20" fill="#dfdfdf" rx="10" ry="10" stroke="#929292" stroke-width="1"></rect><circle class="markmap-node-circle" cx="159.6494140625" stroke="#929292" r="4.5" style="display: none;"></circle><text class="markmap-node-text" x="10" dy="3" text-anchor="start" style="fill-opacity: 1;">Machine Learning Engineering</text></g><g class="markmap-node" transform="translate(683.3974609375,-119.375)"><rect class="markmap-node-rect" y="-10" x="-1" width="146.068359375" height="20" fill="#dfdfdf" rx="10" ry="10" stroke="#929292" stroke-width="1"></rect><circle class="markmap-node-circle" cx="144.068359375" stroke="#929292" r="4.5" style="display: none;"></circle><text class="markmap-node-text" x="10" dy="3" text-anchor="start" style="fill-opacity: 1;">Machine Learning Scientist</text></g><g class="markmap-node" transform="translate(472.6640625,-94.375)"><rect class="markmap-node-rect" y="-10" x="-1" width="152.7333984375" height="20" fill="#dfdfdf" rx="10" ry="10" stroke="#929292" stroke-width="1"></rect><circle class="markmap-node-circle" cx="150.7333984375" stroke="#929292" r="4.5"></circle><text class="markmap-node-text" x="10" dy="3" text-anchor="start" style="fill-opacity: 1;">Machine Learning Directions</text></g><g class="markmap-node" transform="translate(708.9736328125,-149.375)"><rect class="markmap-node-rect" y="-10" x="-1" width="132.728515625" height="20" fill="#dfdfdf" rx="10" ry="10" stroke="#929292" stroke-width="1"></rect><circle class="markmap-node-circle" cx="130.728515625" stroke="#929292" r="4.5" style="display: none;"></circle><text class="markmap-node-text" x="10" dy="3" text-anchor="start" style="fill-opacity: 1;">Reinforcement Learning</text></g><g class="markmap-node" transform="translate(708.9736328125,-174.375)"><rect class="markmap-node-rect" y="-10" x="-1" width="128.841796875" height="20" fill="#dfdfdf" rx="10" ry="10" stroke="#929292" stroke-width="1"></rect><circle class="markmap-node-circle" cx="126.841796875" stroke="#929292" r="4.5" style="display: none;"></circle><text class="markmap-node-text" x="10" dy="3" text-anchor="start" style="fill-opacity: 1;">Unsupervised Learning</text></g><g class="markmap-node" transform="translate(708.9736328125,-199.375)"><rect class="markmap-node-rect" y="-10" x="-1" width="117.728515625" height="20" fill="#dfdfdf" rx="10" ry="10" stroke="#929292" stroke-width="1"></rect><circle class="markmap-node-circle" cx="115.728515625" stroke="#929292" r="4.5" style="display: none;"></circle><text class="markmap-node-text" x="10" dy="3" text-anchor="start" style="fill-opacity: 1;">Supervised Learning</text></g><g class="markmap-node" transform="translate(472.6640625,-174.375)"><rect class="markmap-node-rect" y="-10" x="-1" width="178.3095703125" height="20" fill="#dfdfdf" rx="10" ry="10" stroke="#929292" stroke-width="1"></rect><circle class="markmap-node-circle" cx="176.3095703125" stroke="#929292" r="4.5"></circle><text class="markmap-node-text" x="10" dy="3" text-anchor="start" style="fill-opacity: 1;">Three Modes of Machine Learning</text></g><g class="markmap-node" transform="translate(472.6640625,-199.375)"><rect class="markmap-node-rect" y="-10" x="-1" width="126.0341796875" height="20" fill="#dfdfdf" rx="10" ry="10" stroke="#929292" stroke-width="1"></rect><circle class="markmap-node-circle" cx="124.0341796875" stroke="#929292" r="4.5" style="display: none;"></circle><text class="markmap-node-text" x="10" dy="3" text-anchor="start" style="fill-opacity: 1;">SVM &amp; RandomForest</text></g><g class="markmap-node" transform="translate(472.6640625,-224.375)"><rect class="markmap-node-rect" y="-10" x="-1" width="212.46484375" height="20" fill="#dfdfdf" rx="10" ry="10" stroke="#929292" stroke-width="1"></rect><circle class="markmap-node-circle" cx="210.46484375" stroke="#929292" r="4.5" style="display: none;"></circle><text class="markmap-node-text" x="10" dy="3" text-anchor="start" style="fill-opacity: 1;">Regression &amp; Clustering -&gt; VC Dimension</text></g><g class="markmap-node" transform="translate(472.6640625,-249.375)"><rect class="markmap-node-rect" y="-10" x="-1" width="174.408203125" height="20" fill="#dfdfdf" rx="10" ry="10" stroke="#929292" stroke-width="1"></rect><circle class="markmap-node-circle" cx="172.408203125" stroke="#929292" r="4.5" style="display: none;"></circle><text class="markmap-node-text" x="10" dy="3" text-anchor="start" style="fill-opacity: 1;">ID3 Decision tree algorithm, 1986</text></g><g class="markmap-node" transform="translate(194.6796875,-144.375)"><rect class="markmap-node-rect" y="-10" x="-1" width="219.984375" height="20" fill="#dfdfdf" rx="10" ry="10" stroke="#929292" stroke-width="1"></rect><circle class="markmap-node-circle" cx="217.984375" stroke="#929292" r="4.5"></circle><text class="markmap-node-text" x="10" dy="3" text-anchor="start" style="fill-opacity: 1;">Machine Learning = Algorithm + Neural N…</text></g><g class="markmap-node" transform="translate(750.341796875,-229.375)"><rect class="markmap-node-rect" y="-10" x="-1" width="203.8369140625" height="20" fill="#dfdfdf" rx="10" ry="10" stroke="#929292" stroke-width="1"></rect><circle class="markmap-node-circle" cx="201.8369140625" stroke="#929292" r="4.5" style="display: none;"></circle><text class="markmap-node-text" x="10" dy="3" text-anchor="start" style="fill-opacity: 1;">Multilayer neural network structure wit…</text></g><g class="markmap-node" transform="translate(750.341796875,-254.375)"><rect class="markmap-node-rect" y="-10" x="-1" width="144.388671875" height="20" fill="#dfdfdf" rx="10" ry="10" stroke="#929292" stroke-width="1"></rect><circle class="markmap-node-circle" cx="142.388671875" stroke="#929292" r="4.5" style="display: none;"></circle><text class="markmap-node-text" x="10" dy="3" text-anchor="start" style="fill-opacity: 1;">SVM Algorithm, 1995, Low</text></g><g class="markmap-node" transform="translate(750.341796875,-279.375)"><rect class="markmap-node-rect" y="-10" x="-1" width="203.32421875" height="20" fill="#dfdfdf" rx="10" ry="10" stroke="#929292" stroke-width="1"></rect><circle class="markmap-node-circle" cx="201.32421875" stroke="#929292" r="4.5" style="display: none;"></circle><text class="markmap-node-text" x="10" dy="3" text-anchor="start" style="fill-opacity: 1;">Back-propagation Algorithm, 1986, High</text></g><g class="markmap-node" transform="translate(750.341796875,-304.375)"><rect class="markmap-node-rect" y="-10" x="-1" width="199.41796875" height="20" fill="#dfdfdf" rx="10" ry="10" stroke="#929292" stroke-width="1"></rect><circle class="markmap-node-circle" cx="197.41796875" stroke="#929292" r="4.5" style="display: none;"></circle><text class="markmap-node-text" x="10" dy="3" text-anchor="start" style="fill-opacity: 1;">Linear perceptron function is limited, …</text></g><g class="markmap-node" transform="translate(750.341796875,-329.375)"><rect class="markmap-node-rect" y="-10" x="-1" width="133.841796875" height="20" fill="#dfdfdf" rx="10" ry="10" stroke="#929292" stroke-width="1"></rect><circle class="markmap-node-circle" cx="131.841796875" stroke="#929292" r="4.5" style="display: none;"></circle><text class="markmap-node-text" x="10" dy="3" text-anchor="start" style="fill-opacity: 1;">Perceptron, 1950s, High</text></g><g class="markmap-node" transform="translate(560.16015625,-279.375)"><rect class="markmap-node-rect" y="-10" x="-1" width="132.181640625" height="20" fill="#dfdfdf" rx="10" ry="10" stroke="#929292" stroke-width="1"></rect><circle class="markmap-node-circle" cx="130.181640625" stroke="#929292" r="4.5"></circle><text class="markmap-node-text" x="10" dy="3" text-anchor="start" style="fill-opacity: 1;">2 Low tide or 3 high tide</text></g><g class="markmap-node" transform="translate(560.16015625,-329.375)"><rect class="markmap-node-rect" y="-10" x="-1" width="99.9111328125" height="20" fill="#dfdfdf" rx="10" ry="10" stroke="#929292" stroke-width="1"></rect><circle class="markmap-node-circle" cx="97.9111328125" stroke="#929292" r="4.5" style="display: none;"></circle><text class="markmap-node-text" x="10" dy="3" text-anchor="start" style="fill-opacity: 1;">Neural Networks</text></g><g class="markmap-node" transform="translate(410.017578125,-304.375)"><rect class="markmap-node-rect" y="-10" x="-1" width="92.142578125" height="20" fill="#dfdfdf" rx="10" ry="10" stroke="#929292" stroke-width="1"></rect><circle class="markmap-node-circle" cx="90.142578125" stroke="#929292" r="4.5"></circle><text class="markmap-node-text" x="10" dy="3" text-anchor="start" style="fill-opacity: 1;">Connectionism</text></g><g class="markmap-node" transform="translate(627.3916015625,-359.375)"><rect class="markmap-node-rect" y="-10" x="-1" width="111.6005859375" height="20" fill="#dfdfdf" rx="10" ry="10" stroke="#929292" stroke-width="1"></rect><circle class="markmap-node-circle" cx="109.6005859375" stroke="#929292" r="4.5" style="display: none;"></circle><text class="markmap-node-text" x="10" dy="3" text-anchor="start" style="fill-opacity: 1;">Automation Control</text></g><g class="markmap-node" transform="translate(627.3916015625,-384.375)"><rect class="markmap-node-rect" y="-10" x="-1" width="132.728515625" height="20" fill="#dfdfdf" rx="10" ry="10" stroke="#929292" stroke-width="1"></rect><circle class="markmap-node-circle" cx="130.728515625" stroke="#929292" r="4.5" style="display: none;"></circle><text class="markmap-node-text" x="10" dy="3" text-anchor="start" style="fill-opacity: 1;">Reinforcement Learning</text></g><g class="markmap-node" transform="translate(410.017578125,-371.875)"><rect class="markmap-node-rect" y="-10" x="-1" width="159.3740234375" height="20" fill="#dfdfdf" rx="10" ry="10" stroke="#929292" stroke-width="1"></rect><circle class="markmap-node-circle" cx="157.3740234375" stroke="#929292" r="4.5"></circle><text class="markmap-node-text" x="10" dy="3" text-anchor="start" style="fill-opacity: 1;">Evolutionism / Cyberneticsism</text></g><g class="markmap-node" transform="translate(550.1357421875,-401.875)"><rect class="markmap-node-rect" y="-10" x="-1" width="45.453125" height="20" fill="#dfdfdf" rx="10" ry="10" stroke="#929292" stroke-width="1"></rect><circle class="markmap-node-circle" cx="43.453125" stroke="#929292" r="4.5" style="display: none;"></circle><text class="markmap-node-text" x="10" dy="3" text-anchor="start" style="fill-opacity: 1;">NLP</text></g><g class="markmap-node" transform="translate(550.1357421875,-426.875)"><rect class="markmap-node-rect" y="-10" x="-1" width="97.7138671875" height="20" fill="#dfdfdf" rx="10" ry="10" stroke="#929292" stroke-width="1"></rect><circle class="markmap-node-circle" cx="95.7138671875" stroke="#929292" r="4.5" style="display: none;"></circle><text class="markmap-node-text" x="10" dy="3" text-anchor="start" style="fill-opacity: 1;">Knowledge Map</text></g><g class="markmap-node" transform="translate(410.017578125,-414.375)"><rect class="markmap-node-rect" y="-10" x="-1" width="82.1181640625" height="20" fill="#dfdfdf" rx="10" ry="10" stroke="#929292" stroke-width="1"></rect><circle class="markmap-node-circle" cx="80.1181640625" stroke="#929292" r="4.5"></circle><text class="markmap-node-text" x="10" dy="3" text-anchor="start" style="fill-opacity: 1;">Symbolicism</text></g><g class="markmap-node" transform="translate(194.6796875,-359.375)"><rect class="markmap-node-rect" y="-10" x="-1" width="157.337890625" height="20" fill="#dfdfdf" rx="10" ry="10" stroke="#929292" stroke-width="1"></rect><circle class="markmap-node-circle" cx="155.337890625" stroke="#929292" r="4.5"></circle><text class="markmap-node-text" x="10" dy="3" text-anchor="start" style="fill-opacity: 1;">Artificial Intelligence Tripleism</text></g><g class="markmap-node" transform="translate(101.2314453125,-251.875)"><rect class="markmap-node-rect" y="-10" x="-1" width="35.4482421875" height="20" fill="#dfdfdf" rx="10" ry="10" stroke="#929292" stroke-width="1"></rect><circle class="markmap-node-circle" cx="33.4482421875" stroke="#929292" r="4.5"></circle><text class="markmap-node-text" x="10" dy="3" text-anchor="start" style="fill-opacity: 1;">AI</text></g><g class="markmap-node" transform="translate(0,0)"><rect class="markmap-node-rect" y="-10" x="-1" width="43.2314453125" height="20" fill="#dfdfdf" rx="10" ry="10" stroke="#929292" stroke-width="1"></rect><circle class="markmap-node-circle" cx="41.2314453125" stroke="#929292" r="4.5"></circle><text class="markmap-node-text" x="10" dy="3" text-anchor="start" style="fill-opacity: 1;">root</text></g></g>
</svg>
